<svg width="232" height="232" viewBox="0 0 232 232" fill="none" xmlns="http://www.w3.org/2000/svg">
<g clip-path="url(#clip0_47:63)">
<path fill-rule="evenodd" clip-rule="evenodd" d="M126.658 104.26C126.029 104.701 125.461 105.275 124.894 105.848C121.727 108.703 118.004 111.967 115.887 115.785C113.135 120.845 113.126 125.152 114.768 128.718C117.084 133.735 123.124 137.24 129.648 138.138C136.126 139.057 143.044 137.548 147.245 133.273C150.14 130.38 151.809 126.126 151.172 120.356C150.486 113.81 146.513 109.058 141.069 105.764C138.996 104.462 136.791 103.539 134.434 102.684C136.417 101.317 138.421 99.939 140.455 98.5482C147.224 94.2368 154.72 90.555 162.202 87.6767C172.042 83.7408 182.177 81.5858 192.772 81.2951C193.716 81.1903 194.482 80.3683 194.464 79.4199C194.446 78.4721 193.637 77.7201 192.633 77.6923C181.627 78.008 171.069 80.1931 160.85 84.2992C153.215 87.4054 145.439 91.0541 138.519 95.5929C135.668 97.5091 132.875 99.3994 130.175 101.407C124.874 100.12 119.434 99.6914 115.065 99.8984C86.0482 101.759 58.0006 128.843 40.8389 150.885C40.2294 151.637 40.3465 152.701 41.1202 153.31C41.8952 153.918 42.992 153.745 43.6015 152.994C60.2187 131.674 87.1937 105.229 115.292 103.461C118.597 103.254 122.617 103.523 126.658 104.26ZM131.005 105.338C129.705 106.24 128.472 107.27 127.304 108.432C124.446 111.148 120.934 113.998 118.966 117.431C116.881 121.235 116.723 124.495 117.94 127.136C119.888 131.362 124.871 133.907 130.123 134.579C135.481 135.363 141.269 134.36 144.699 130.75C146.93 128.474 148.151 125.217 147.684 120.804C147.084 115.336 143.692 111.44 139.245 108.814C136.719 107.237 133.897 106.113 131.005 105.338Z" fill="url(#paint0_linear_47:63)"/>
<path fill-rule="evenodd" clip-rule="evenodd" d="M41.306 152.585C41.4768 151.712 41.8797 150.734 42.284 149.756C43.0381 147.824 43.9325 145.988 44.2099 144.589C45.994 136.139 48.0281 125.983 47.0689 117.33C46.9864 116.41 46.1041 115.691 45.136 115.806C44.1692 115.921 43.4362 116.728 43.5782 117.78C44.457 125.991 42.4173 135.673 40.7608 143.906C40.4223 145.333 39.3519 147.565 38.5647 149.512C37.9275 151.232 37.5279 152.846 37.7239 154.192C37.7827 154.963 38.5837 156.038 40.4346 156.164C43.0282 156.275 49.3251 154.567 49.9537 154.444C56.3147 153.184 61.983 152.235 67.8851 155.643C68.7067 156.072 69.7784 155.75 70.3202 155.029C70.8026 154.175 70.4855 153.042 69.6626 152.614C62.9535 148.771 56.4382 149.463 49.211 150.952C48.7918 151.14 45.0393 152.186 42.2398 152.486C41.9162 152.471 41.6256 152.601 41.306 152.585Z" fill="url(#paint1_linear_47:63)"/>
</g>
<defs>
<linearGradient id="paint0_linear_47:63" x1="41.7726" y1="155.267" x2="197.331" y2="85.4838" gradientUnits="userSpaceOnUse">
<stop stop-color="#FF910A"/>
<stop offset="1" stop-color="#DD6D2A"/>
</linearGradient>
<linearGradient id="paint1_linear_47:63" x1="34.0189" y1="146.139" x2="61.5831" y2="133.774" gradientUnits="userSpaceOnUse">
<stop stop-color="#FF910A"/>
<stop offset="1" stop-color="#DD6D2A"/>
</linearGradient>
<clipPath id="clip0_47:63">
<rect width="174.209" height="174.209" fill="white" transform="translate(72.0948 231.043) rotate(-114.161)"/>
</clipPath>
</defs>
</svg>
