<?xml version="1.0" encoding="utf-8"?>
<!-- Generator: Adobe Illustrator 23.0.3, SVG Export Plug-In . SVG Version: 6.00 Build 0)  -->
<svg version="1.1" id="Слой_1" xmlns="http://www.w3.org/2000/svg" xmlns:xlink="http://www.w3.org/1999/xlink" x="0px" y="0px"
	 viewBox="0 0 960 560" style="enable-background:new 0 0 960 560;" xml:space="preserve">
<style type="text/css">
	.st0{fill:url(#SVGID_1_);}
	.st1{fill:url(#SVGID_2_);}
	.st2{fill:url(#SVGID_3_);}
	.st3{fill:url(#SVGID_4_);}
</style>
<linearGradient id="SVGID_1_" gradientUnits="userSpaceOnUse" x1="616.7847" y1="157.3344" x2="616.7847" y2="457.2201">
	<stop  offset="0" style="stop-color:#FF910A"/>
	<stop  offset="1" style="stop-color:#DD6D2A"/>
</linearGradient>
<path class="st0" d="M517.29,455.34c25.31-22.19,47.46-30.08,61.67-33.32c18.17-4.13,36.15-5.67,36.15-5.67
	c13.69-1.17,22.96-0.86,38.63-4.25c14.83-3.22,20.29-6.48,24.1-10.63c4.82-5.26,6.96-11.89,7.8-19.14
	c2.27-19.53,2.4-106.31,0-224.36c0,0,30.07-5.32,30.45,14.89c0.38,20.2,0.03,273.27,0.03,273.27c-2.13,1.64-5.57,4.07-10.16,6.26
	c-22.38,10.68-41.1,1-76.74-3.62c-26.04-3.38-46.39-2.18-58.52-1.41C555.21,448.35,537.16,450.64,517.29,455.34z"/>
<linearGradient id="SVGID_2_" gradientUnits="userSpaceOnUse" x1="383.2215" y1="98.7812" x2="383.2215" y2="441.0341">
	<stop  offset="0" style="stop-color:#FF910A"/>
	<stop  offset="1" style="stop-color:#DD6D2A"/>
</linearGradient>
<path class="st1" d="M466.84,441.03V173.56c0,0-13.23-30.72-53.87-51.51c-40.64-20.79-85.54-25.05-95.46-22.68
	c-9.92,2.36-15.6,4.25-17.01,16.54c-1.42,12.29-0.95,249.05,0,255.67c0.95,6.62,1.89,10.4,9.45,13.7s14.18,0,30.25,1.89
	c19.75,2.32,36.92,3.92,70.41,18.43c0.83,0.36,19.27,8.42,33.5,18.11c5.14,3.5,10.92,7.88,10.92,7.88
	C459.83,435.22,463.81,438.48,466.84,441.03z"/>
<linearGradient id="SVGID_3_" gradientUnits="userSpaceOnUse" x1="518.1091" y1="98.7812" x2="518.1091" y2="441.0341" gradientTransform="matrix(-1 0 0 1 1095.7384 0)">
	<stop  offset="0" style="stop-color:#FF910A"/>
	<stop  offset="1" style="stop-color:#DD6D2A"/>
</linearGradient>
<path class="st2" d="M494.01,441.03V173.56c0,0,13.23-30.72,53.87-51.51S633.42,97,643.34,99.37c9.92,2.36,15.6,4.25,17.01,16.54
	c1.42,12.29,0.95,249.05,0,255.67c-0.95,6.62-1.89,10.4-9.45,13.7s-14.18,0-30.25,1.89c-19.75,2.32-36.92,3.92-70.41,18.43
	c-0.83,0.36-19.27,8.42-33.5,18.11c-5.14,3.5-10.92,7.88-10.92,7.88C501.03,435.22,497.04,438.48,494.01,441.03z"/>
<linearGradient id="SVGID_4_" gradientUnits="userSpaceOnUse" x1="751.0188" y1="157.3344" x2="751.0188" y2="457.2201" gradientTransform="matrix(-1 0 0 1 1094.2351 0)">
	<stop  offset="0" style="stop-color:#FF910A"/>
	<stop  offset="1" style="stop-color:#DD6D2A"/>
</linearGradient>
<path class="st3" d="M442.71,455.34c-25.31-22.19-47.46-30.08-61.67-33.32c-18.17-4.13-36.15-5.67-36.15-5.67
	c-13.69-1.17-22.96-0.86-38.63-4.25c-14.83-3.22-20.29-6.48-24.1-10.63c-4.82-5.26-6.96-11.89-7.8-19.14
	c-2.27-19.53-2.4-106.31,0-224.36c0,0-30.07-5.32-30.45,14.89c-0.38,20.2-0.03,273.27-0.03,273.27c2.13,1.64,5.57,4.07,10.16,6.26
	c22.38,10.68,41.1,1,76.74-3.62c26.04-3.38,46.39-2.18,58.52-1.41C404.79,448.35,422.84,450.64,442.71,455.34z"/>
</svg>
