<svg width="504" height="489" viewBox="0 0 504 489" fill="none" xmlns="http://www.w3.org/2000/svg">
<g clip-path="url(#clip0_3:33)">
<path d="M353.7 487.349C353.172 487.904 352.624 488.452 352.069 489H288.78C288.259 488.466 287.746 487.918 287.233 487.349C287.212 487.329 287.191 487.301 287.17 487.28C280.294 479.666 275.965 468.597 273.266 456.926C273.093 456.218 272.94 455.504 272.788 454.783C272.08 451.503 271.504 448.188 271.032 444.9C270.949 444.332 270.866 443.763 270.796 443.194C270.158 438.472 269.728 433.825 269.45 429.463C269.416 428.901 269.381 428.354 269.346 427.806C268.838 419.121 268.833 410.415 269.332 401.73C269.332 401.73 269.416 401.73 269.575 401.737C270.04 401.758 271.157 401.806 272.801 401.903C277.332 402.181 285.88 402.874 295.933 404.511C296.481 404.601 297.036 404.698 297.591 404.795C306.095 406.2 314.483 408.23 322.686 410.87C323.2 411.044 323.706 411.217 324.22 411.391L324.227 411.425L330.52 442.986L333.129 414.893C335.203 415.829 337.222 416.828 339.158 417.896C339.699 418.194 340.226 418.492 340.746 418.797C345.172 421.304 349.189 424.47 352.659 428.187C373.3 451.052 368.88 471.489 353.7 487.349Z" fill="#F2F2F2"/>
<path d="M327.251 447.329L328.349 448.544C341.031 462.732 348.6 475.901 350.932 487.879C350.969 488.053 350.994 488.226 351.031 488.4L350.22 488.554L349.438 488.692C347.058 475.633 338.197 462.134 327.139 449.756C326.786 449.353 326.428 448.945 326.058 448.548C321.331 443.349 316.248 438.362 311.108 433.699C310.713 433.334 310.307 432.969 309.901 432.604C303.086 426.485 296.228 420.948 290.113 416.281C289.683 415.949 289.246 415.623 288.814 415.302C278.431 407.445 270.375 402.237 268.58 401.096C268.363 400.953 268.241 400.878 268.213 400.859L268.638 400.181L268.638 400.169L269.069 399.486C269.097 399.504 269.509 399.755 270.253 400.24C273.048 402.041 280.561 406.998 289.906 414.044C290.326 414.364 290.763 414.69 291.194 415.022C296.16 418.804 301.592 423.138 307.078 427.882C308.458 429.071 309.803 430.259 311.114 431.444C311.526 431.804 311.932 432.169 312.327 432.533C317.884 437.573 322.858 442.505 327.251 447.329Z" fill="white"/>
<path d="M296.53 403.166C296.343 403.616 296.141 404.067 295.933 404.511C294.348 407.939 292.321 411.145 289.904 414.047C289.55 414.463 289.189 414.886 288.815 415.302C287.802 416.418 286.724 417.498 285.581 418.541C280.907 422.77 275.367 425.932 269.346 427.806C269.152 427.868 268.965 427.931 268.77 427.986C268.805 428.534 268.84 429.075 268.874 429.637C269.069 429.581 269.256 429.526 269.45 429.463C275.838 427.538 281.718 424.217 286.664 419.74C287.873 418.648 289.024 417.493 290.112 416.28C290.486 415.871 290.848 415.448 291.195 415.025C293.78 411.92 295.931 408.479 297.591 404.795C297.786 404.352 297.98 403.908 298.167 403.457C297.612 403.36 297.064 403.263 296.53 403.166Z" fill="white"/>
<path d="M322.971 409.643C322.888 410.052 322.79 410.461 322.686 410.87C320.805 418.666 316.8 425.789 311.114 431.447C310.718 431.842 310.316 432.23 309.9 432.605C309.781 432.723 309.65 432.847 309.525 432.958C304.353 437.626 298.139 440.99 291.402 442.77C284.666 444.551 277.601 444.696 270.796 443.194C270.637 443.167 270.47 443.125 270.311 443.09C270.394 443.659 270.47 444.235 270.56 444.803C270.72 444.838 270.873 444.873 271.032 444.9C278.009 446.343 285.228 446.123 292.104 444.256C298.98 442.39 305.319 438.93 310.607 434.158C310.774 434.006 310.947 433.86 311.107 433.7C311.523 433.312 311.926 432.924 312.328 432.535C318.147 426.715 322.261 419.415 324.227 411.425C324.331 411.009 324.428 410.593 324.518 410.177C324.005 409.997 323.491 409.816 322.971 409.643Z" fill="white"/>
<path d="M339.158 416.724C339.164 417.112 339.164 417.507 339.158 417.896C339.042 428.855 334.789 439.367 327.252 447.328C326.863 447.744 326.461 448.146 326.059 448.548C325.621 448.971 325.184 449.394 324.733 449.796C317.754 456.084 308.937 459.963 299.584 460.861C290.231 461.759 280.837 459.628 272.788 454.783C272.65 454.711 272.515 454.632 272.385 454.547C272.552 455.282 272.718 456.003 272.899 456.725C273.023 456.794 273.141 456.863 273.266 456.926C281.549 461.542 291.068 463.453 300.491 462.391C309.915 461.329 318.77 457.347 325.816 451.003C326.267 450.594 326.717 450.185 327.141 449.755C327.557 449.36 327.952 448.957 328.348 448.541C335.992 440.483 340.405 429.897 340.746 418.797C340.76 418.423 340.767 418.048 340.767 417.674C340.24 417.348 339.699 417.036 339.158 416.724Z" fill="white"/>
<path d="M198.893 114.828H76.931C75.9161 114.827 74.943 114.424 74.2254 113.706C73.5077 112.989 73.104 112.016 73.1029 111.002V18.437C73.104 17.4225 73.5077 16.4498 74.2253 15.7324C74.943 15.015 75.9161 14.6114 76.931 14.6102H226.633C227.648 14.6114 228.621 15.015 229.339 15.7324C230.057 16.4498 230.46 17.4225 230.461 18.437V83.274C230.452 91.6398 227.123 99.6603 221.205 105.576C215.287 111.491 207.263 114.819 198.893 114.828Z" fill="white"/>
<path d="M198.893 115.175H76.931C75.8241 115.174 74.763 114.734 73.9803 113.951C73.1976 113.169 72.7573 112.108 72.756 111.002V18.437C72.7572 17.3306 73.1975 16.2698 73.9802 15.4874C74.7629 14.705 75.8241 14.2648 76.931 14.2635H226.633C227.74 14.2648 228.801 14.7049 229.584 15.4873C230.367 16.2697 230.807 17.3305 230.808 18.437V83.2741C230.799 91.7318 227.433 99.8403 221.45 105.821C215.467 111.801 207.355 115.165 198.893 115.175ZM76.931 15.6505C76.192 15.6514 75.4835 15.9453 74.9609 16.4677C74.4383 16.9901 74.1444 17.6983 74.1436 18.437V111.002C74.1444 111.741 74.4384 112.449 74.9609 112.971C75.4835 113.493 76.192 113.787 76.931 113.788H198.893C206.987 113.779 214.746 110.561 220.469 104.841C226.192 99.1201 229.412 91.3641 229.421 83.2741V18.437C229.42 17.6983 229.126 16.9901 228.603 16.4677C228.081 15.9453 227.372 15.6514 226.633 15.6505H76.931Z" fill="#CCCCCC"/>
<path d="M197.041 45.8711H106.523C105.692 45.8711 104.895 45.5411 104.308 44.9538C103.72 44.3664 103.39 43.5698 103.39 42.7392C103.39 41.9086 103.72 41.112 104.308 40.5246C104.895 39.9373 105.692 39.6073 106.523 39.6073H197.041C197.871 39.6085 198.667 39.9391 199.254 40.5263C199.84 41.1135 200.17 41.9094 200.17 42.7392C200.17 43.569 199.84 44.3649 199.254 44.9521C198.667 45.5394 197.871 45.8699 197.041 45.8711Z" fill="#CCCCCC"/>
<path d="M197.041 67.4463H106.523C105.692 67.4463 104.895 67.1164 104.308 66.529C103.72 65.9417 103.39 65.1451 103.39 64.3144C103.39 63.4838 103.72 62.6872 104.308 62.0999C104.895 61.5125 105.692 61.1826 106.523 61.1826H197.041C197.872 61.1826 198.669 61.5125 199.257 62.0999C199.844 62.6872 200.174 63.4838 200.174 64.3144C200.174 65.1451 199.844 65.9417 199.257 66.529C198.669 67.1164 197.872 67.4463 197.041 67.4463Z" fill="#CCCCCC"/>
<path d="M197.041 89.6383H106.523C105.692 89.6383 104.895 89.3083 104.308 88.721C103.72 88.1336 103.39 87.337 103.39 86.5064C103.39 85.6758 103.72 84.8792 104.308 84.2918C104.895 83.7045 105.692 83.3745 106.523 83.3745H197.041C197.872 83.3745 198.669 83.7045 199.257 84.2918C199.844 84.8792 200.174 85.6758 200.174 86.5064C200.174 87.337 199.844 88.1336 199.257 88.721C198.669 89.3083 197.872 89.6383 197.041 89.6383Z" fill="#CCCCCC"/>
<path d="M225.509 37.4053C235.843 37.4053 244.22 29.0318 244.22 18.7026C244.22 8.37345 235.843 0 225.509 0C215.175 0 206.798 8.37345 206.798 18.7026C206.798 29.0318 215.175 37.4053 225.509 37.4053Z" fill="#F9A826"/>
<path d="M222.957 28.4365C222.634 28.4365 222.315 28.3613 222.026 28.2168C221.737 28.0723 221.486 27.8626 221.292 27.6041L216.187 20.8009C216.023 20.5823 215.904 20.3336 215.836 20.069C215.768 19.8043 215.753 19.5289 215.792 19.2585C215.831 18.988 215.922 18.7278 216.061 18.4927C216.201 18.2577 216.385 18.0523 216.604 17.8884C216.822 17.7245 217.071 17.6052 217.336 17.5374C217.601 17.4696 217.876 17.4546 218.147 17.4933C218.417 17.5319 218.678 17.6235 218.913 17.7627C219.148 17.9019 219.353 18.086 219.517 18.3046L222.857 22.7551L231.434 9.89488C231.741 9.43578 232.217 9.11706 232.758 9.00885C233.299 8.90064 233.861 9.0118 234.321 9.31786C234.78 9.62393 235.099 10.0998 235.207 10.6409C235.315 11.1819 235.204 11.7438 234.898 12.2029L224.689 27.51C224.504 27.7868 224.256 28.0154 223.964 28.1765C223.673 28.3376 223.347 28.4265 223.015 28.4358C222.995 28.4362 222.976 28.4365 222.957 28.4365Z" fill="white"/>
<path d="M153.877 195.225H31.9153C23.5457 195.216 15.5217 191.888 9.60349 185.973C3.68532 180.057 0.356336 172.037 0.346893 163.671V98.8334C0.348085 97.8188 0.751828 96.8462 1.46955 96.1288C2.18727 95.4114 3.16037 95.0078 4.17539 95.0066H153.877C154.892 95.0078 155.865 95.4114 156.583 96.1288C157.301 96.8462 157.705 97.8188 157.706 98.8334V191.398C157.705 192.413 157.301 193.385 156.583 194.103C155.865 194.82 154.892 195.224 153.877 195.225Z" fill="white"/>
<path d="M153.877 195.572H31.9153C23.4538 195.562 15.3416 192.198 9.3584 186.218C3.37521 180.237 0.0096205 172.128 0 163.671V98.8334C0.00125421 97.7269 0.441566 96.6661 1.22433 95.8837C2.0071 95.1012 3.0684 94.6611 4.1754 94.6599H153.877C154.984 94.6611 156.046 95.1012 156.828 95.8837C157.611 96.6661 158.051 97.7269 158.053 98.8334V191.398C158.051 192.505 157.611 193.566 156.828 194.348C156.046 195.13 154.984 195.57 153.877 195.572ZM4.1754 96.0469C3.43631 96.0478 2.72774 96.3416 2.20513 96.864C1.68251 97.3864 1.38851 98.0946 1.38762 98.8334V163.671C1.39676 171.761 4.616 179.517 10.3391 185.237C16.0621 190.958 23.8217 194.176 31.9153 194.185H153.877C154.616 194.184 155.325 193.89 155.848 193.368C156.37 192.845 156.664 192.137 156.665 191.398V98.8334C156.664 98.0946 156.37 97.3864 155.848 96.864C155.325 96.3416 154.616 96.0478 153.877 96.0469H4.1754Z" fill="#CCCCCC"/>
<path d="M124.285 126.268H33.7676C32.9366 126.268 32.1396 125.938 31.552 125.35C30.9644 124.763 30.6342 123.966 30.6342 123.136C30.6342 122.305 30.9644 121.508 31.552 120.921C32.1396 120.334 32.9366 120.004 33.7676 120.004H124.285C125.116 120.004 125.913 120.334 126.501 120.921C127.088 121.508 127.418 122.305 127.418 123.136C127.418 123.966 127.088 124.763 126.501 125.35C125.913 125.938 125.116 126.268 124.285 126.268Z" fill="#CCCCCC"/>
<path d="M124.285 147.843H33.7676C32.9366 147.843 32.1396 147.513 31.552 146.925C30.9644 146.338 30.6342 145.542 30.6342 144.711C30.6342 143.88 30.9644 143.084 31.552 142.496C32.1396 141.909 32.9366 141.579 33.7676 141.579H124.285C125.116 141.579 125.913 141.909 126.501 142.496C127.088 143.084 127.418 143.88 127.418 144.711C127.418 145.542 127.088 146.338 126.501 146.925C125.913 147.513 125.116 147.843 124.285 147.843Z" fill="#CCCCCC"/>
<path d="M124.285 170.035H33.7676C32.9366 170.035 32.1396 169.705 31.552 169.117C30.9644 168.53 30.6342 167.734 30.6342 166.903C30.6342 166.072 30.9644 165.276 31.552 164.688C32.1396 164.101 32.9366 163.771 33.7676 163.771H124.285C125.116 163.771 125.913 164.101 126.501 164.688C127.088 165.276 127.418 166.072 127.418 166.903C127.418 167.734 127.088 168.53 126.501 169.117C125.913 169.705 125.116 170.035 124.285 170.035Z" fill="#CCCCCC"/>
<path d="M154.047 118.545C164.381 118.545 172.758 110.171 172.758 99.842C172.758 89.5128 164.381 81.1393 154.047 81.1393C143.713 81.1393 135.336 89.5128 135.336 99.842C135.336 110.171 143.713 118.545 154.047 118.545Z" fill="#F9A826"/>
<path d="M151.494 109.576C151.171 109.576 150.852 109.501 150.563 109.356C150.274 109.212 150.023 109.002 149.829 108.743L144.725 101.94C144.561 101.722 144.441 101.473 144.374 101.208C144.306 100.944 144.291 100.668 144.329 100.398C144.368 100.127 144.46 99.8671 144.599 99.632C144.738 99.397 144.922 99.1916 145.141 99.0277C145.36 98.8638 145.608 98.7445 145.873 98.6768C146.138 98.609 146.414 98.5939 146.684 98.6326C146.955 98.6712 147.215 98.7628 147.45 98.902C147.685 99.0412 147.891 99.2253 148.055 99.4439L151.394 103.894L159.972 91.0342C160.278 90.5751 160.754 90.2564 161.296 90.1482C161.837 90.04 162.399 90.1511 162.858 90.4572C163.318 90.7632 163.636 91.2392 163.745 91.7802C163.853 92.3213 163.742 92.8831 163.436 93.3422L153.226 108.649C153.042 108.926 152.793 109.155 152.502 109.316C152.211 109.477 151.885 109.566 151.552 109.575C151.533 109.575 151.514 109.576 151.494 109.576Z" fill="white"/>
<path d="M305.839 281.505H135.186C126.817 281.496 118.793 278.168 112.875 272.253C106.956 266.337 103.627 258.317 103.618 249.951V154.586C103.62 153.278 104.14 152.024 105.065 151.099C105.99 150.175 107.245 149.654 108.553 149.653H305.839C307.147 149.654 308.401 150.175 309.327 151.099C310.252 152.024 310.772 153.278 310.773 154.586V276.572C310.772 277.88 310.252 279.134 309.327 280.059C308.401 280.983 307.147 281.504 305.839 281.505Z" fill="white"/>
<path d="M305.839 281.852H135.186C126.725 281.842 118.613 278.478 112.63 272.498C106.646 266.517 103.281 258.409 103.271 249.951V154.586C103.273 153.186 103.83 151.844 104.82 150.854C105.81 149.864 107.153 149.308 108.553 149.306H305.839C307.239 149.308 308.582 149.864 309.572 150.854C310.562 151.844 311.119 153.186 311.12 154.586V276.572C311.119 277.972 310.562 279.314 309.572 280.304C308.582 281.294 307.239 281.85 305.839 281.852ZM108.553 150.693C107.521 150.694 106.531 151.105 105.801 151.834C105.071 152.564 104.66 153.554 104.659 154.586V249.951C104.668 258.041 107.887 265.797 113.61 271.518C119.333 277.238 127.093 280.456 135.186 280.465H305.839C306.871 280.464 307.861 280.053 308.591 279.323C309.321 278.594 309.732 277.604 309.733 276.572V154.586C309.732 153.554 309.321 152.564 308.591 151.835C307.861 151.105 306.871 150.694 305.839 150.693H108.553Z" fill="#CCCCCC"/>
<path d="M266.84 190.74H147.551C147.009 190.74 146.471 190.634 145.969 190.427C145.468 190.22 145.012 189.916 144.628 189.533C144.244 189.149 143.939 188.694 143.731 188.193C143.524 187.692 143.417 187.155 143.417 186.612C143.417 186.07 143.524 185.533 143.731 185.032C143.939 184.531 144.244 184.075 144.628 183.692C145.012 183.309 145.468 183.005 145.969 182.798C146.471 182.59 147.009 182.484 147.551 182.485H266.84C267.383 182.484 267.921 182.59 268.422 182.798C268.924 183.005 269.38 183.309 269.764 183.692C270.148 184.075 270.452 184.531 270.66 185.032C270.868 185.533 270.975 186.07 270.975 186.612C270.975 187.155 270.868 187.692 270.66 188.193C270.452 188.694 270.148 189.149 269.764 189.533C269.38 189.916 268.924 190.22 268.422 190.427C267.921 190.634 267.383 190.74 266.84 190.74Z" fill="#CCCCCC"/>
<path d="M266.84 219.173H147.551C147.009 219.173 146.471 219.067 145.969 218.86C145.468 218.653 145.012 218.349 144.628 217.966C144.244 217.582 143.939 217.127 143.731 216.626C143.524 216.125 143.417 215.588 143.417 215.045C143.417 214.503 143.524 213.966 143.731 213.465C143.939 212.964 144.244 212.508 144.628 212.125C145.012 211.742 145.468 211.438 145.969 211.231C146.471 211.024 147.009 210.917 147.551 210.918H266.84C267.936 210.918 268.986 211.353 269.76 212.127C270.535 212.901 270.97 213.951 270.97 215.045C270.97 216.14 270.535 217.19 269.76 217.964C268.986 218.738 267.936 219.173 266.84 219.173Z" fill="#CCCCCC"/>
<path d="M266.84 248.419H147.551C146.456 248.419 145.406 247.984 144.631 247.21C143.857 246.436 143.422 245.386 143.422 244.291C143.422 243.197 143.857 242.147 144.631 241.373C145.406 240.599 146.456 240.164 147.551 240.164H266.84C267.383 240.163 267.921 240.269 268.422 240.476C268.924 240.684 269.38 240.987 269.764 241.371C270.148 241.754 270.452 242.209 270.66 242.71C270.868 243.212 270.975 243.749 270.975 244.291C270.975 244.834 270.868 245.371 270.66 245.872C270.452 246.373 270.148 246.828 269.764 247.212C269.38 247.595 268.924 247.899 268.422 248.106C267.921 248.313 267.383 248.419 266.84 248.419Z" fill="#CCCCCC"/>
<path d="M306.459 180.794C319.54 180.794 330.145 170.194 330.145 157.118C330.145 144.043 319.54 133.443 306.459 133.443C293.377 133.443 282.773 144.043 282.773 157.118C282.773 170.194 293.377 180.794 306.459 180.794Z" fill="#F9A826"/>
<path d="M303.227 169.44C302.818 169.44 302.415 169.345 302.049 169.162C301.683 168.979 301.365 168.714 301.12 168.387L294.658 159.775C294.45 159.498 294.299 159.183 294.213 158.848C294.128 158.513 294.109 158.164 294.157 157.822C294.206 157.48 294.322 157.15 294.499 156.853C294.675 156.555 294.908 156.295 295.185 156.088C295.462 155.88 295.777 155.729 296.112 155.644C296.447 155.558 296.796 155.539 297.138 155.588C297.481 155.637 297.81 155.752 298.108 155.929C298.406 156.105 298.666 156.338 298.873 156.615L303.101 162.248L313.959 145.969C314.347 145.389 314.95 144.986 315.634 144.85C316.319 144.713 317.03 144.854 317.611 145.241C318.192 145.628 318.595 146.23 318.733 146.914C318.87 147.599 318.73 148.309 318.344 148.891L305.42 168.268C305.186 168.618 304.872 168.907 304.503 169.111C304.134 169.315 303.722 169.428 303.301 169.439C303.276 169.44 303.252 169.44 303.227 169.44Z" fill="white"/>
<path d="M367.82 470.099L358.184 473.32L341.167 437.7L355.39 432.946L367.82 470.099Z" fill="#FFB6B6"/>
<path d="M373.402 478.614L342.33 486.921L342.198 486.528C341.118 483.299 341.36 481.923 342.881 478.876C343.624 477.375 344.658 476.037 345.923 474.939C347.187 473.84 348.657 473.003 350.247 472.476L350.248 472.476L354.484 466.275L366.514 467.039L369.226 466.132L373.402 478.614Z" fill="#2F2E41"/>
<path d="M391.629 479.156H381.468L376.634 439.98L391.631 439.98L391.629 479.156Z" fill="#FFB6B6"/>
<path d="M394.221 486.921L361.456 486.92V486.505C361.457 483.1 362.783 481.98 365.192 479.572C366.374 478.385 367.779 477.444 369.327 476.803C370.874 476.162 372.534 475.834 374.209 475.839H374.21L380.195 471.301L391.361 475.84L394.221 475.84L394.221 486.921Z" fill="#2F2E41"/>
<path d="M314.296 165.272C314.505 166.336 314.945 167.341 315.585 168.217C316.225 169.093 317.049 169.817 318 170.34C318.95 170.863 320.004 171.171 321.087 171.243C322.169 171.315 323.254 171.148 324.266 170.755L335.996 182.997L345.178 177.686L328.369 160.631C327.596 158.977 326.243 157.663 324.566 156.939C322.889 156.215 321.005 156.131 319.27 156.704C317.535 157.276 316.071 158.464 315.154 160.043C314.237 161.622 313.932 163.483 314.296 165.272Z" fill="#FFB6B6"/>
<path d="M390.214 226.824L395.502 221.355L364.92 193.044L334.141 165.574L325.616 177.614L357.87 207.708L390.214 226.824Z" fill="#E4E4E4"/>
<path d="M371.423 412.613C371.423 405.74 371.559 400.838 371.669 396.899C371.989 385.371 372.075 382.272 367.661 362.419L366.527 357.321L359.843 377.365C357.708 383.759 356.617 390.455 356.612 397.196L366.918 459.009H345.853L330.424 392.184L330.417 371.743C329.058 370.336 328.298 368.458 328.298 366.502C328.298 364.547 329.058 362.668 330.417 361.262L335.543 330.638L340.731 289.366H397.559C397.559 289.366 407.588 310.144 397.622 330.755L397.62 412.639L392.471 469.256H376.574L371.423 412.613Z" fill="#2F2E41"/>
<path d="M394.085 294.361L340.93 289.934L340.654 289.911L344.896 213.589C345.145 208.79 346.83 204.177 349.731 200.346C352.633 196.515 356.619 193.642 361.172 192.1V186.759C361.173 185.437 361.699 184.17 362.634 183.235C363.57 182.3 364.838 181.775 366.16 181.773H373.927C374.854 181.77 375.763 182.027 376.552 182.514C377.34 183.001 377.977 183.699 378.389 184.529L382.186 192.122L396.547 203.605C403.64 209.277 397.931 266.142 397.624 269.143L401.098 286.502C401.289 287.457 401.266 288.442 401.03 289.387C400.795 290.332 400.353 291.213 399.736 291.967C399.119 292.72 398.343 293.328 397.463 293.746C396.583 294.165 395.622 294.383 394.648 294.385C394.461 294.385 394.273 294.377 394.085 294.361Z" fill="#E4E4E4"/>
<path d="M337.794 314.513C338.634 313.827 339.314 312.966 339.785 311.989C340.256 311.012 340.507 309.944 340.521 308.859C340.534 307.775 340.31 306.701 339.863 305.713C339.416 304.724 338.758 303.846 337.934 303.14L343.208 287.029L334.195 281.438L327.067 304.294C325.972 305.755 325.45 307.566 325.602 309.386C325.753 311.205 326.567 312.906 327.889 314.166C329.212 315.426 330.95 316.157 332.776 316.221C334.601 316.285 336.387 315.677 337.794 314.513Z" fill="#FFB6B6"/>
<path d="M356.331 204.99L349.013 202.552L338.444 249.687L328.709 296.564L343.35 298.717L354.705 248.874L356.331 204.99Z" fill="#E4E4E4"/>
<path d="M364.322 176.895C373.964 176.895 381.78 169.082 381.78 159.445C381.78 149.807 373.964 141.995 364.322 141.995C354.68 141.995 346.864 149.807 346.864 159.445C346.864 169.082 354.68 176.895 364.322 176.895Z" fill="#FFB6B6"/>
<path d="M340.833 150.899C340.994 149.245 341.468 147.637 342.23 146.161C343.046 147.935 345.592 148.242 347.334 147.36C349.076 146.477 350.244 144.8 351.489 143.295C354.775 139.326 359.293 136.106 364.414 135.519C369.535 134.933 375.179 137.516 377.114 142.292C377.982 141.087 379.835 140.953 381.145 141.653C382.411 142.451 383.399 143.62 383.973 145.002C385.262 147.645 385.99 150.526 386.113 153.463C386.235 156.401 385.748 159.332 384.683 162.073C382.527 167.527 377.202 174.876 371.708 176.934C368.373 178.184 365.004 176.584 361.457 176.934C361.642 173.065 362.393 168.29 362.579 164.421C362.68 162.301 362.695 159.93 361.247 158.379C360.803 157.958 360.271 157.639 359.69 157.445C359.109 157.252 358.493 157.188 357.884 157.259C357.276 157.33 356.691 157.534 356.17 157.856C355.649 158.178 355.205 158.611 354.87 159.123C354.691 157.92 354.284 156.762 353.672 155.711C353.358 155.189 352.905 154.766 352.363 154.489C351.821 154.211 351.212 154.091 350.606 154.14C349.125 154.383 348.21 155.903 346.85 156.539C346.078 156.848 345.23 156.915 344.42 156.729C343.609 156.543 342.875 156.114 342.315 155.5C341.771 154.872 341.359 154.141 341.104 153.35C340.85 152.56 340.757 151.726 340.833 150.899Z" fill="#2F2E41"/>
<path opacity="0.1" d="M366.582 248.663L346.079 289.65H361.457L366.582 248.663Z" fill="black"/>
<path d="M504 488.175C504 488.283 503.979 488.391 503.938 488.491C503.896 488.591 503.836 488.682 503.759 488.759C503.682 488.836 503.591 488.897 503.491 488.938C503.39 488.979 503.283 489 503.174 489H111.664C111.445 489 111.235 488.913 111.08 488.758C110.925 488.604 110.838 488.394 110.838 488.175C110.838 487.956 110.925 487.746 111.08 487.591C111.235 487.436 111.445 487.349 111.664 487.349H503.174C503.283 487.349 503.39 487.37 503.491 487.412C503.591 487.453 503.682 487.514 503.759 487.59C503.836 487.667 503.897 487.758 503.938 487.859C503.979 487.959 504 488.066 504 488.175Z" fill="#CACACA"/>
</g>
<defs>
<clipPath id="clip0_3:33">
<rect width="504" height="489" fill="white"/>
</clipPath>
</defs>
</svg>
