<svg width="713" height="539" viewBox="0 0 713 539" fill="none" xmlns="http://www.w3.org/2000/svg">
<path d="M335.061 452.479C335.061 452.479 344.135 437.585 355.786 446.391C367.437 455.197 389.013 470.055 389.013 470.055C389.013 470.055 393.432 479.558 381.994 475.988C370.556 472.419 333.218 466.674 333.218 466.674L335.061 452.479Z" fill="#FEB8B8"/>
<path d="M81.4573 357.895C84.3491 334.633 98.7605 311.714 120.937 304.144C112.191 328.087 112.193 354.352 120.943 378.294C124.351 387.515 129.101 397.416 125.895 406.709C123.901 412.492 119.022 416.916 113.568 419.682C108.114 422.448 102.061 423.767 96.084 425.059L94.9076 426.032C85.419 404.599 78.5654 381.157 81.4573 357.895Z" fill="#F0F0F0"/>
<path d="M121.157 304.584C108.243 319.059 100.216 337.238 98.2168 356.537C97.7128 360.684 97.8653 364.884 98.6688 368.984C99.5806 372.952 101.538 376.603 104.338 379.559C106.893 382.367 109.831 384.943 111.659 388.324C112.569 390.068 113.1 391.985 113.218 393.949C113.335 395.913 113.037 397.88 112.341 399.721C110.727 404.352 107.546 408.126 104.307 411.709C100.71 415.688 96.9115 419.763 95.3827 425.037C95.1975 425.676 94.2171 425.351 94.402 424.713C97.0618 415.537 105.967 410.325 110.213 402.06C112.195 398.203 113.026 393.726 111.169 389.655C109.544 386.095 106.516 383.435 103.905 380.614C101.131 377.771 99.0962 374.292 97.9769 370.481C96.9673 366.436 96.6532 362.248 97.0481 358.097C97.7882 348.738 99.9947 339.554 103.587 330.881C107.631 320.96 113.343 311.804 120.474 303.809C120.916 303.314 121.596 304.092 121.157 304.584Z" fill="white"/>
<path d="M98.4948 350.285C95.3035 349.509 92.4915 347.625 90.561 344.967C88.6305 342.31 87.7072 339.052 87.956 335.776C88.0087 335.114 89.0405 335.165 88.9878 335.828C88.7505 338.878 89.6108 341.912 91.4136 344.383C93.2163 346.854 95.8426 348.599 98.8186 349.303C99.4652 349.457 99.1376 350.437 98.4948 350.285Z" fill="white"/>
<path d="M102.855 378.306C108.618 374.863 112.873 369.373 114.771 362.932C114.959 362.293 115.939 362.618 115.752 363.256C113.765 369.955 109.325 375.659 103.319 379.228C102.746 379.568 102.285 378.644 102.855 378.306Z" fill="white"/>
<path d="M108.59 321.939C109.762 322.496 111.054 322.753 112.351 322.687C113.647 322.621 114.906 322.235 116.016 321.561C116.584 321.214 117.045 322.139 116.481 322.484C115.251 323.222 113.859 323.648 112.427 323.724C110.995 323.799 109.567 323.523 108.266 322.92C108.138 322.873 108.034 322.779 107.973 322.658C107.912 322.537 107.899 322.397 107.937 322.267C107.981 322.137 108.074 322.03 108.196 321.969C108.318 321.907 108.46 321.896 108.59 321.939Z" fill="white"/>
<path d="M188.536 345.692C188.187 345.919 187.839 346.146 187.49 346.381C182.819 349.453 178.406 352.9 174.294 356.687C173.971 356.975 173.648 357.271 173.335 357.568C163.524 366.798 155.512 377.769 149.705 389.925C147.398 394.765 145.464 399.772 143.917 404.905C141.781 411.994 140.029 419.85 135.802 425.649C135.368 426.258 134.896 426.841 134.39 427.392H96.1858C96.0989 427.349 96.0117 427.314 95.9244 427.27L94.3991 427.34C94.4603 427.07 94.5297 426.791 94.591 426.52C94.6259 426.364 94.6693 426.207 94.7042 426.05C94.7302 425.945 94.7566 425.84 94.774 425.744C94.7825 425.71 94.7914 425.675 94.8 425.649C94.8174 425.553 94.8438 425.465 94.8613 425.378C95.2447 423.817 95.6398 422.257 96.0466 420.696C96.0466 420.687 96.0466 420.687 96.0551 420.678C99.1846 408.794 103.333 397.066 109.13 386.342C109.304 386.019 109.478 385.688 109.67 385.365C112.31 380.545 115.339 375.95 118.727 371.623C120.589 369.261 122.571 366.994 124.663 364.831C130.079 359.254 136.338 354.564 143.211 350.932C156.913 343.695 172.777 340.923 187.42 345.343C187.795 345.457 188.161 345.57 188.536 345.692Z" fill="#F0F0F0"/>
<path d="M188.45 346.177C169.426 349.957 152.076 359.637 138.865 373.842C135.966 376.85 133.56 380.295 131.734 384.053C130.074 387.77 129.439 391.864 129.896 395.91C130.245 399.691 131.041 403.518 130.466 407.318C130.143 409.259 129.413 411.11 128.325 412.749C127.237 414.388 125.814 415.778 124.151 416.829C120.075 419.554 115.263 420.652 110.521 421.562C105.255 422.572 99.7689 423.538 95.3739 426.829C94.8414 427.227 94.2541 426.378 94.7858 425.98C102.432 420.255 112.679 421.456 121.044 417.415C124.948 415.529 128.307 412.455 129.273 408.086C130.119 404.265 129.302 400.318 128.915 396.492C128.411 392.552 128.88 388.548 130.281 384.831C131.909 380.993 134.179 377.46 136.992 374.384C143.216 367.357 150.505 361.353 158.593 356.592C167.794 351.106 177.865 347.235 188.371 345.147C189.021 345.018 189.096 346.049 188.45 346.177H188.45Z" fill="white"/>
<path d="M142.85 369.017C140.768 366.476 139.657 363.278 139.715 359.993C139.773 356.709 140.997 353.552 143.167 351.086C143.608 350.589 144.401 351.251 143.96 351.749C141.934 354.041 140.795 356.982 140.747 360.041C140.699 363.099 141.746 366.074 143.699 368.429C144.122 368.941 143.271 369.527 142.85 369.017H142.85Z" fill="white"/>
<path d="M129.466 394.016C136.14 394.739 142.841 392.919 148.233 388.918C148.767 388.521 149.355 389.371 148.821 389.767C143.203 393.92 136.225 395.8 129.281 395.033C128.619 394.959 128.808 393.943 129.466 394.016Z" fill="white"/>
<path d="M167.97 352.465C168.571 353.616 169.448 354.599 170.522 355.327C171.597 356.056 172.836 356.505 174.127 356.636C174.789 356.701 174.601 357.718 173.943 357.653C172.516 357.502 171.149 357.003 169.96 356.201C168.771 355.399 167.796 354.318 167.121 353.053C167.048 352.939 167.02 352.801 167.044 352.668C167.069 352.534 167.143 352.415 167.252 352.334C167.364 352.257 167.503 352.227 167.638 352.252C167.772 352.276 167.892 352.352 167.97 352.465Z" fill="white"/>
<path d="M389.575 512.066C390.695 503.051 396.281 494.169 404.875 491.235C401.486 500.514 401.486 510.693 404.877 519.972C406.198 523.545 408.039 527.383 406.797 530.984C405.907 533.211 404.197 535.01 402.019 536.012C399.859 536.993 397.582 537.694 395.243 538.096L394.787 538.473C391.11 530.167 388.454 521.081 389.575 512.066Z" fill="#F0F0F0"/>
<path d="M404.961 491.405C399.955 497.015 396.845 504.06 396.07 511.54C395.875 513.147 395.934 514.775 396.245 516.363C396.598 517.901 397.357 519.316 398.442 520.462C399.522 521.475 400.475 522.616 401.28 523.859C401.632 524.535 401.838 525.278 401.884 526.039C401.929 526.8 401.813 527.562 401.544 528.276C400.827 530.017 399.769 531.597 398.43 532.922C397.036 534.464 395.564 536.043 394.972 538.087C394.9 538.335 394.52 538.209 394.592 537.962C395.622 534.405 399.073 532.385 400.719 529.182C401.143 528.462 401.397 527.655 401.461 526.821C401.526 525.988 401.398 525.151 401.089 524.375C400.343 523.065 399.393 521.882 398.274 520.871C397.199 519.769 396.411 518.421 395.977 516.944C395.586 515.376 395.464 513.753 395.617 512.144C395.904 508.517 396.759 504.958 398.151 501.597C399.719 497.752 401.932 494.203 404.696 491.105C404.867 490.913 405.131 491.215 404.961 491.405H404.961Z" fill="white"/>
<path d="M396.178 509.117C394.941 508.816 393.851 508.086 393.103 507.056C392.355 506.026 391.997 504.764 392.093 503.494C392.114 503.237 392.514 503.257 392.493 503.514C392.401 504.696 392.735 505.872 393.433 506.83C394.132 507.787 395.15 508.464 396.303 508.737C396.554 508.796 396.427 509.176 396.178 509.117H396.178Z" fill="white"/>
<path d="M397.867 519.976C400.101 518.642 401.75 516.515 402.485 514.018C402.558 513.771 402.938 513.897 402.866 514.144C402.095 516.74 400.375 518.951 398.047 520.334C397.825 520.466 397.646 520.107 397.867 519.976Z" fill="white"/>
<path d="M400.09 498.131C400.544 498.347 401.045 498.447 401.547 498.421C402.05 498.396 402.538 498.246 402.968 497.985C403.188 497.851 403.367 498.209 403.148 498.343C402.672 498.629 402.132 498.794 401.577 498.823C401.022 498.852 400.468 498.745 399.964 498.511C399.915 498.493 399.874 498.457 399.851 498.41C399.827 498.363 399.822 498.309 399.837 498.258C399.854 498.208 399.89 498.167 399.937 498.143C399.985 498.119 400.039 498.115 400.09 498.131L400.09 498.131Z" fill="white"/>
<path d="M431.073 507.337C430.938 507.425 430.803 507.512 430.668 507.604C428.858 508.794 427.147 510.13 425.554 511.598C425.429 511.709 425.304 511.824 425.182 511.939C421.38 515.516 418.275 519.768 416.024 524.479C415.13 526.355 414.38 528.296 413.781 530.285C412.953 533.032 412.274 536.077 410.636 538.324C410.468 538.56 410.285 538.786 410.089 539H395.283C395.249 538.983 395.215 538.969 395.181 538.953L394.59 538.98C394.614 538.875 394.641 538.767 394.665 538.662C394.678 538.601 394.695 538.54 394.709 538.479C394.719 538.439 394.729 538.398 394.736 538.361C394.739 538.348 394.742 538.334 394.746 538.324C394.752 538.287 394.763 538.253 394.769 538.219C394.918 537.614 395.071 537.01 395.229 536.405L395.232 536.398C396.389 531.777 398.09 527.31 400.299 523.091C400.367 522.966 400.434 522.837 400.509 522.712C401.531 520.844 402.705 519.063 404.018 517.386C404.74 516.471 405.508 515.592 406.319 514.754C408.418 512.593 410.844 510.775 413.507 509.368C418.818 506.563 424.966 505.488 430.641 507.202C430.786 507.246 430.928 507.289 431.073 507.337Z" fill="#F0F0F0"/>
<path d="M431.04 507.525C423.667 508.989 416.943 512.741 411.823 518.246C410.7 519.412 409.767 520.747 409.06 522.203C408.416 523.644 408.17 525.231 408.347 526.799C408.599 528.258 408.674 529.743 408.568 531.22C408.443 531.972 408.16 532.689 407.738 533.325C407.317 533.96 406.765 534.499 406.121 534.906C404.501 535.865 402.704 536.489 400.838 536.74C398.797 537.132 396.671 537.506 394.968 538.781C394.762 538.936 394.534 538.607 394.74 538.452C397.704 536.234 401.675 536.699 404.917 535.133C405.689 534.813 406.377 534.322 406.93 533.695C407.483 533.068 407.885 532.323 408.106 531.517C408.299 530.022 408.252 528.505 407.967 527.025C407.772 525.497 407.954 523.946 408.496 522.505C409.127 521.018 410.007 519.649 411.097 518.456C413.509 515.733 416.334 513.406 419.469 511.561C423.035 509.435 426.938 507.935 431.009 507.125C431.261 507.075 431.29 507.475 431.04 507.525H431.04Z" fill="white"/>
<path d="M413.367 516.377C412.561 515.392 412.13 514.152 412.153 512.879C412.175 511.607 412.649 510.383 413.49 509.427C413.661 509.235 413.969 509.491 413.798 509.684C413.013 510.573 412.571 511.712 412.553 512.898C412.534 514.083 412.94 515.236 413.696 516.149C413.861 516.347 413.531 516.574 413.367 516.377Z" fill="white"/>
<path d="M408.18 526.065C410.767 526.345 413.364 525.64 415.454 524.089C415.661 523.935 415.888 524.265 415.682 524.418C413.504 526.028 410.8 526.756 408.109 526.459C407.852 526.431 407.925 526.037 408.18 526.065H408.18Z" fill="white"/>
<path d="M423.103 509.962C423.336 510.408 423.676 510.789 424.092 511.071C424.509 511.353 424.989 511.528 425.489 511.578C425.746 511.604 425.673 511.997 425.418 511.972C424.865 511.914 424.335 511.721 423.874 511.41C423.413 511.099 423.036 510.68 422.774 510.19C422.745 510.145 422.735 510.092 422.744 510.04C422.754 509.989 422.782 509.942 422.825 509.911C422.868 509.881 422.922 509.87 422.974 509.879C423.026 509.888 423.073 509.918 423.103 509.962Z" fill="white"/>
<path d="M643.956 320.572C639.511 284.817 617.36 249.589 583.273 237.954C596.716 274.755 596.713 315.126 583.265 351.926C578.027 366.099 570.726 381.317 575.653 395.601C578.718 404.489 586.218 411.289 594.6 415.541C602.983 419.793 612.287 421.82 621.474 423.806L623.282 425.302C637.867 392.358 648.401 356.326 643.956 320.572Z" fill="#F0F0F0"/>
<path d="M582.935 238.63C602.786 260.88 615.123 288.82 618.196 318.484C618.815 324.843 618.891 331.348 617.501 337.616C616.1 343.715 613.091 349.327 608.788 353.87C604.861 358.186 600.344 362.146 597.534 367.342C594.572 372.819 594.459 379.042 596.486 384.86C598.967 391.978 603.857 397.779 608.836 403.287C614.363 409.402 620.202 415.665 622.552 423.772C622.837 424.754 624.344 424.255 624.059 423.274C619.971 409.17 606.284 401.158 599.757 388.455C596.711 382.527 595.433 375.645 598.288 369.388C600.785 363.916 605.439 359.828 609.453 355.493C613.668 350.94 616.9 345.945 618.565 339.917C620.268 333.751 620.446 327.229 619.992 320.882C618.855 306.498 615.463 292.381 609.942 279.05C603.725 263.8 594.946 249.727 583.985 237.439C583.307 236.679 582.261 237.875 582.935 238.63L582.935 238.63Z" fill="white"/>
<path d="M617.769 308.874C622.674 307.683 626.996 304.786 629.963 300.701C632.93 296.616 634.35 291.609 633.967 286.575C633.886 285.556 632.3 285.634 632.381 286.654C632.746 291.342 631.424 296.005 628.653 299.804C625.882 303.602 621.845 306.284 617.271 307.366C616.277 307.603 616.78 309.109 617.769 308.874H617.769Z" fill="white"/>
<path d="M611.067 351.944C602.208 346.652 595.668 338.214 592.751 328.313C592.463 327.332 590.956 327.831 591.244 328.811C594.298 339.109 601.122 347.876 610.353 353.362C611.234 353.884 611.943 352.463 611.067 351.944Z" fill="white"/>
<path d="M602.252 265.305C600.45 266.161 598.464 266.557 596.472 266.456C594.479 266.354 592.543 265.76 590.837 264.725C589.964 264.192 589.256 265.614 590.123 266.143C592.013 267.278 594.152 267.932 596.353 268.049C598.555 268.165 600.751 267.741 602.75 266.813C602.946 266.741 603.107 266.597 603.201 266.411C603.295 266.225 603.314 266.01 603.255 265.81C603.188 265.61 603.045 265.446 602.857 265.351C602.67 265.256 602.452 265.24 602.252 265.305Z" fill="white"/>
<path d="M479.371 301.815C479.907 302.163 480.443 302.512 480.979 302.874C488.158 307.596 494.941 312.894 501.262 318.715C501.758 319.157 502.254 319.613 502.736 320.069C517.816 334.255 530.131 351.12 539.057 369.804C542.601 377.242 545.575 384.939 547.953 392.828C551.235 403.724 553.928 415.799 560.426 424.712C561.093 425.649 561.818 426.544 562.596 427.392H621.318C621.451 427.325 621.585 427.272 621.719 427.205L624.064 427.312C623.97 426.896 623.863 426.467 623.769 426.052C623.715 425.811 623.649 425.57 623.595 425.328C623.555 425.168 623.514 425.007 623.488 424.859C623.475 424.806 623.461 424.752 623.448 424.712C623.421 424.564 623.38 424.43 623.353 424.296C622.764 421.897 622.157 419.499 621.532 417.1C621.532 417.086 621.532 417.086 621.519 417.073C616.708 398.806 610.331 380.78 601.422 364.295C601.154 363.8 600.887 363.29 600.591 362.794C596.534 355.386 591.879 348.322 586.671 341.673C583.808 338.041 580.763 334.556 577.548 331.233C569.223 322.66 559.602 315.451 549.038 309.87C527.977 298.746 503.594 294.484 481.086 301.279C480.51 301.453 479.947 301.627 479.371 301.815Z" fill="#F0F0F0"/>
<path d="M479.503 302.561C508.744 308.37 535.412 323.249 555.718 345.083C560.04 349.787 564.015 354.935 566.678 360.777C569.23 366.491 570.206 372.784 569.504 379.003C568.966 384.814 567.743 390.696 568.627 396.537C569.559 402.694 573.213 407.731 578.334 411.155C584.598 415.344 591.994 417.032 599.284 418.431C607.378 419.984 615.81 421.468 622.566 426.526C623.384 427.139 624.287 425.833 623.469 425.221C611.716 416.421 595.966 418.268 583.109 412.056C577.109 409.157 571.947 404.433 570.46 397.717C569.161 391.844 570.417 385.777 571.012 379.898C571.637 373.724 571.211 367.789 568.912 361.974C566.561 356.025 562.779 350.71 558.596 345.916C549.03 335.116 537.826 325.887 525.394 318.568C511.252 310.137 495.772 304.187 479.625 300.977C478.625 300.779 478.51 302.364 479.503 302.561V302.561Z" fill="white"/>
<path d="M549.593 337.667C552.793 333.762 554.5 328.846 554.411 323.797C554.322 318.749 552.441 313.896 549.106 310.106C548.428 309.342 547.209 310.359 547.887 311.125C551 314.648 552.751 319.168 552.825 323.87C552.898 328.571 551.289 333.144 548.288 336.763C547.637 337.55 548.946 338.45 549.593 337.667L549.593 337.667Z" fill="white"/>
<path d="M570.165 376.092C559.906 377.203 549.606 374.405 541.318 368.256C540.498 367.646 539.595 368.952 540.414 369.561C549.051 375.944 559.776 378.834 570.448 377.654C571.466 377.541 571.176 375.979 570.165 376.092Z" fill="white"/>
<path d="M510.982 312.225C510.058 313.994 508.71 315.506 507.059 316.625C505.407 317.744 503.503 318.436 501.518 318.637C500.5 318.737 500.79 320.299 501.802 320.199C503.994 319.967 506.095 319.201 507.923 317.968C509.751 316.736 511.249 315.074 512.287 313.129C512.4 312.954 512.442 312.742 512.405 312.537C512.368 312.332 512.254 312.148 512.086 312.024C511.913 311.905 511.699 311.86 511.493 311.897C511.286 311.935 511.102 312.052 510.982 312.225V312.225Z" fill="white"/>
<path d="M712.413 428.264H0.871638C0.640465 428.264 0.41876 428.173 0.255296 428.009C0.0918324 427.846 0 427.624 0 427.392C0 427.161 0.0918324 426.939 0.255296 426.776C0.41876 426.612 0.640465 426.521 0.871638 426.521H712.128C712.359 426.521 712.581 426.612 712.745 426.776C712.908 426.939 713 427.161 713 427.392C713 427.874 712.895 428.264 712.413 428.264Z" fill="#CACACA"/>
<path d="M249.573 504.994H92.3936C92.1625 504.994 91.9408 504.903 91.7773 504.739C91.6139 504.575 91.522 504.354 91.522 504.122C91.522 503.891 91.6139 503.669 91.7773 503.506C91.9408 503.342 92.1625 503.25 92.3936 503.25H249.289C249.52 503.25 249.741 503.342 249.905 503.506C250.068 503.669 250.16 503.891 250.16 504.122C250.16 504.604 250.055 504.994 249.573 504.994Z" fill="#CACACA"/>
<path d="M496.247 539H339.067C338.836 539 338.614 538.908 338.451 538.745C338.287 538.581 338.196 538.359 338.196 538.128C338.196 537.897 338.287 537.675 338.451 537.512C338.614 537.348 338.836 537.256 339.067 537.256H495.962C496.193 537.256 496.415 537.348 496.578 537.512C496.742 537.675 496.834 537.897 496.834 538.128C496.834 538.61 496.728 539 496.247 539Z" fill="#CACACA"/>
<path d="M644.425 504.122H487.246C487.015 504.122 486.793 504.031 486.629 503.867C486.466 503.704 486.374 503.482 486.374 503.251C486.374 503.019 486.466 502.798 486.629 502.634C486.793 502.471 487.015 502.379 487.246 502.379H644.141C644.372 502.379 644.593 502.471 644.757 502.634C644.92 502.798 645.012 503.019 645.012 503.251C645.012 503.732 644.907 504.122 644.425 504.122Z" fill="#CACACA"/>
<path d="M290.481 470.989C280.717 470.989 271.778 470.053 264.676 467.841C256.234 465.212 250.933 460.959 248.92 455.193C247.973 452.745 247.691 450.09 248.1 447.497C248.51 444.904 249.598 442.466 251.253 440.429C263.741 424.151 307.078 419.559 312.893 419.017L324.69 396.671C325.445 391.34 321.873 387.304 328.043 387.203L401.03 386.211C407.089 386.084 405.37 389.838 406.407 395.036L417.527 414.894L369.669 435.099L376.904 452.737L376.432 453.011C362.425 461.139 322.144 470.988 290.481 470.989Z" fill="#2F2E41"/>
<path d="M410.902 415.741C410.902 415.741 477.739 408.09 473.38 438.695C469.021 469.301 418.166 490.98 341.158 438.695L349.876 423.392C349.876 423.392 378.573 421.965 396.009 414.313L410.902 415.741Z" fill="#2F2E41"/>
<path d="M316.277 277.086C316.277 277.086 303.574 274.776 300.109 294.415C296.645 314.054 291.095 360.574 291.095 360.574L273.864 420.331C271.831 421.41 270.148 423.046 269.01 425.046C267.872 427.047 267.327 429.33 267.437 431.629C267.548 433.928 268.311 436.148 269.636 438.03C270.961 439.912 272.793 441.378 274.92 442.256C277.047 443.135 279.38 443.39 281.646 442.992C283.912 442.594 286.019 441.559 287.719 440.009C289.419 438.458 290.643 436.455 291.248 434.234C291.853 432.013 291.814 429.666 291.135 427.467L314.192 364.044L318.587 309.438V280.825C318.587 280.048 318.371 279.288 317.963 278.627C317.555 277.967 316.971 277.433 316.277 277.086Z" fill="#FEB8B8"/>
<path d="M405.693 277.086C405.693 277.086 418.397 274.776 421.861 294.415C425.326 314.054 430.875 360.574 430.875 360.574L448.107 420.331C450.139 421.41 451.823 423.046 452.961 425.046C454.099 427.047 454.644 429.33 454.533 431.629C454.422 433.928 453.66 436.148 452.335 438.03C451.01 439.912 449.177 441.378 447.05 442.256C444.923 443.135 442.591 443.39 440.324 442.992C438.058 442.594 435.952 441.559 434.252 440.009C432.551 438.458 431.327 436.455 430.722 434.234C430.117 432.013 430.156 429.666 430.835 427.467L407.779 364.044L403.384 309.438V280.825C403.384 280.048 403.6 279.288 404.008 278.627C404.416 277.967 404.999 277.433 405.693 277.086Z" fill="#FEB8B8"/>
<path d="M404.725 260.853L380.696 251.863L334.122 251.261L314.075 260.853L319.705 293.224C319.705 293.224 308.337 312.481 320.854 331.739L323.663 400.362C323.663 400.362 368.566 426.41 406.468 395.131L397.902 331.328C397.902 331.328 412.23 301.726 401.124 290.728L404.725 260.853Z" fill="#F9A826"/>
<path d="M394.938 270.912L404.725 260.853C404.725 260.853 426.084 272.092 425.644 309.681L398.701 301.375L394.938 270.912Z" fill="#F9A826"/>
<path d="M324.947 270.912L314.549 260.511C314.549 260.511 296.202 274.707 296.642 312.297L321.185 301.375L324.947 270.912Z" fill="#F9A826"/>
<path d="M392.729 445.042C392.729 445.042 385.244 429.289 372.745 436.841C360.245 444.393 337.247 456.936 337.247 456.936C337.247 456.936 331.868 465.93 343.614 463.564C355.36 461.199 393.092 459.353 393.092 459.353L392.729 445.042Z" fill="#FEB8B8"/>
<path d="M371.935 163.443C372.041 163.342 372.152 163.25 372.256 163.146C378.944 156.455 380.3 146.964 375.283 141.946C370.543 137.204 361.811 138.161 355.221 143.926C349.57 138.545 341.992 137.044 337.088 140.759C331.432 145.043 331.476 154.631 337.187 162.175C337.578 162.691 337.988 163.18 338.41 163.65C330.81 166.432 324.249 171.483 319.614 178.118C314.979 184.753 312.493 192.652 312.493 200.747V238.345C312.493 239.448 312.71 240.539 313.132 241.558C313.553 242.576 314.172 243.502 314.951 244.282C315.73 245.061 316.655 245.68 317.674 246.101C318.692 246.523 319.783 246.74 320.885 246.74H390.351C392.502 246.74 394.565 245.886 396.086 244.364C397.608 242.842 398.462 240.779 398.462 238.627V200.747C398.461 192.543 395.906 184.544 391.152 177.859C386.399 171.174 379.682 166.135 371.935 163.443Z" fill="#2F2E41"/>
<path d="M379.883 233.331C392.756 220.454 392.756 199.576 379.883 186.698C367.01 173.821 346.139 173.821 333.266 186.698C320.393 199.576 320.393 220.454 333.266 233.331C346.139 246.209 367.01 246.209 379.883 233.331Z" fill="#FFB6B6"/>
<path d="M321.938 189.274C329.47 194.467 338.411 197.231 347.559 197.195C344.296 199.458 340.581 200.987 336.67 201.676C348.833 204.286 361.405 204.357 373.597 201.884C376.307 201.449 378.922 200.551 381.327 199.228C382.525 198.558 383.57 197.644 384.392 196.544C385.214 195.444 385.795 194.184 386.098 192.844C386.908 188.215 383.302 184.008 379.554 181.173C373.816 176.899 367.2 173.954 360.184 172.552C353.169 171.15 345.929 171.325 338.99 173.065C334.459 174.236 329.919 176.216 326.976 179.856C324.033 183.496 323.161 189.109 325.965 192.857L321.938 189.274Z" fill="#2F2E41"/>
<path d="M145.624 123.472L146.663 122.071L174.337 142.605C172.833 138.02 167.51 123.484 158.783 117.685C148.358 110.756 141.024 112.911 137.028 118.928C133.032 124.945 133.887 132.543 144.312 139.472C153.149 145.346 168.892 144.529 173.484 144.144L145.624 123.472Z" fill="#F2F2F2"/>
<path d="M562.004 11.0492L563.288 12.2285L539.994 37.6257C544.71 36.6063 559.715 32.822 566.389 24.7433C574.361 15.092 572.982 7.57059 567.415 2.96916C561.849 -1.63227 554.205 -1.57133 546.232 8.08002C539.473 16.261 538.648 32.0082 538.553 36.6177L562.004 11.0492Z" fill="#F2F2F2"/>
<path d="M186.328 282.221L187.612 283.4L164.318 308.798C169.034 307.778 184.039 303.994 190.713 295.915C198.686 286.264 197.306 278.742 191.739 274.141C186.173 269.54 178.529 269.601 170.556 279.252C163.797 287.433 162.972 303.18 162.877 307.79L186.328 282.221Z" fill="#F2F2F2"/>
<path d="M383.298 40.1526L384.807 41.0263L367.55 70.8594C371.934 68.8447 385.767 61.9057 390.538 52.5751C396.237 41.4282 393.265 34.3828 386.836 31.0935C380.407 27.8042 372.957 29.5164 367.257 40.6635C362.426 50.1123 365.022 65.6658 365.925 70.1869L383.298 40.1526Z" fill="#F2F2F2"/>
<path d="M544.551 226.747L546.06 227.62L528.804 257.453C533.187 255.439 547.02 248.5 551.791 239.169C557.49 228.022 554.518 220.977 548.089 217.688C541.66 214.398 534.21 216.111 528.51 227.258C523.679 236.706 526.275 252.26 527.178 256.781L544.551 226.747Z" fill="#F2F2F2"/>
</svg>
