<svg width="540" height="359" viewBox="0 0 540 359" fill="none" xmlns="http://www.w3.org/2000/svg">
<g clip-path="url(#clip0_21:4)">
<path d="M193.698 206.608C212.204 174.042 247.504 149.037 284.873 151.445C257.309 181.431 241.236 220.204 239.497 260.903C238.884 276.602 239.835 294.126 229.416 305.881C222.932 313.196 213.023 316.738 203.279 317.481C193.536 318.224 183.794 316.463 174.18 314.709L171.848 315.425C170.961 277.976 175.192 239.174 193.698 206.608Z" fill="#F0F0F0"/>
<path d="M284.928 152.23C257.295 165.537 233.732 187.762 219.268 214.868C216.141 220.728 213.479 226.945 212.317 233.518C211.155 240.094 211.967 246.354 214.212 252.6C216.265 258.31 219.025 263.913 219.655 270.023C220.318 276.463 217.95 282.485 213.686 287.264C208.469 293.111 201.463 296.734 194.489 300.039C186.745 303.709 178.644 307.398 173.159 314.247C172.494 315.077 171.246 313.997 171.91 313.169C181.452 301.252 197.786 299.012 209.113 289.413C214.399 284.934 218.367 278.834 218.116 271.687C217.897 265.437 215.055 259.657 212.927 253.893C210.692 247.842 209.578 241.757 210.379 235.304C211.199 228.704 213.624 222.37 216.588 216.456C223.272 203.117 232.419 190.871 242.897 180.286C254.94 168.118 268.975 158.101 284.394 150.667C285.349 150.208 285.877 151.773 284.928 152.23Z" fill="white"/>
<path d="M223.505 205.809C219.269 202.71 216.271 198.206 215.048 193.101C213.825 187.995 214.456 182.621 216.829 177.939C217.312 176.993 218.804 177.699 218.32 178.647C216.103 183.003 215.516 188.009 216.664 192.761C217.813 197.513 220.622 201.697 224.583 204.559C225.444 205.182 224.36 206.429 223.505 205.809Z" fill="white"/>
<path d="M212.79 249.842C223.405 248.29 233.046 242.793 239.789 234.447C240.457 233.619 241.705 234.699 241.039 235.526C234.005 244.198 223.961 249.898 212.911 251.489C211.858 251.64 211.742 249.992 212.79 249.842V249.842Z" fill="white"/>
<path d="M255.755 170.149C257.145 171.69 258.895 172.861 260.848 173.558C262.802 174.255 264.898 174.455 266.949 174.142C267.999 173.977 268.113 175.625 267.069 175.788C264.803 176.124 262.488 175.9 260.328 175.135C258.167 174.37 256.227 173.087 254.677 171.399C254.517 171.252 254.42 171.05 254.404 170.834C254.388 170.618 254.455 170.404 254.591 170.235C254.735 170.07 254.938 169.969 255.156 169.953C255.374 169.937 255.589 170.007 255.755 170.149Z" fill="white"/>
<path d="M359.225 254.179C358.571 254.3 357.918 254.421 357.259 254.555C348.484 256.229 339.86 258.614 331.472 261.686C330.82 261.913 330.162 262.153 329.518 262.398C309.387 270.014 290.845 281.302 274.833 295.689C268.467 301.42 262.546 307.627 257.121 314.257C249.63 323.412 242.236 333.936 232.447 339.906C231.433 340.54 230.38 341.111 229.295 341.615L172.903 318.216C172.801 318.098 172.694 317.993 172.592 317.876L170.297 317.044C170.553 316.683 170.827 316.313 171.082 315.952C171.23 315.742 171.39 315.537 171.538 315.326C171.64 315.188 171.743 315.049 171.828 314.919C171.861 314.872 171.896 314.826 171.925 314.793C172.009 314.662 172.101 314.549 172.18 314.431C173.702 312.362 175.24 310.301 176.796 308.246C176.801 308.233 176.801 308.233 176.819 308.225C188.712 292.599 202.014 277.829 217.134 265.548C217.589 265.178 218.049 264.796 218.53 264.437C225.376 258.939 232.66 254.01 240.309 249.7C244.504 247.353 248.816 245.22 253.228 243.309C264.636 238.394 276.746 235.304 289.113 234.153C313.769 231.863 338.882 237.486 357.791 252.981C358.275 253.378 358.746 253.769 359.225 254.179Z" fill="#F0F0F0"/>
<path d="M358.801 254.842C328.728 248.824 296.538 252.378 268.676 265.309C262.652 268.104 256.785 271.465 251.902 276.013C247.016 280.564 243.896 286.051 241.93 292.391C240.132 298.186 238.964 304.323 235.79 309.58C232.444 315.122 226.928 318.503 220.648 319.751C212.963 321.277 205.189 319.951 197.631 318.389C189.239 316.655 180.551 314.721 172.049 316.887C171.019 317.149 170.673 315.535 171.701 315.273C186.492 311.506 200.882 319.555 215.703 318.713C222.619 318.32 229.458 315.84 233.56 309.982C237.147 304.86 238.356 298.533 240.126 292.649C241.984 286.471 244.756 280.942 249.279 276.273C253.906 271.496 259.655 267.9 265.581 264.962C278.945 258.338 293.618 254.07 308.356 251.929C325.294 249.467 342.529 249.921 359.314 253.273C360.353 253.481 359.833 255.049 358.801 254.842V254.842Z" fill="white"/>
<path d="M277.511 260.628C275.994 255.602 276.311 250.201 278.407 245.388C280.503 240.575 284.242 236.664 288.954 234.354C289.909 233.889 290.675 235.352 289.719 235.817C285.327 237.96 281.845 241.604 279.902 246.09C277.959 250.575 277.683 255.608 279.124 260.28C279.436 261.295 277.821 261.638 277.511 260.628Z" fill="white"/>
<path d="M242.455 289.332C251.864 294.487 262.87 295.904 273.278 293.302C274.309 293.043 274.656 294.657 273.626 294.915C262.79 297.603 251.34 296.105 241.56 290.72C240.628 290.206 241.528 288.821 242.455 289.332Z" fill="white"/>
<path d="M324.723 251.58C324.905 253.647 325.597 255.636 326.738 257.369C327.878 259.102 329.431 260.524 331.257 261.509C332.195 262.011 331.294 263.395 330.363 262.896C328.35 261.799 326.637 260.226 325.373 258.314C324.108 256.402 323.331 254.21 323.109 251.928C323.07 251.715 323.114 251.495 323.232 251.312C323.349 251.13 323.531 250.999 323.742 250.947C323.956 250.902 324.179 250.943 324.362 251.062C324.546 251.18 324.675 251.366 324.723 251.58Z" fill="white"/>
<path d="M251.801 292.783C243.903 254.583 234.031 241.847 234.031 241.847L230.26 238.921L225.725 235.397L225.746 234.944L224.671 234.578L224.418 234.382L224.004 234.064L223.937 234.135L223.797 234.281L203.274 227.302L177.237 218.455L165.18 202.778C163.216 200.224 160.688 198.161 157.794 196.749C154.9 195.336 151.718 194.614 148.498 194.638L109.992 194.923C104.786 194.961 99.7821 196.947 95.9649 200.489L70.6559 223.973L31.2195 242.815L31.1529 242.748L30.7388 243.044L24.6456 245.959L24.897 247.268L21.1256 249.99C21.1256 249.99 11.2536 261.841 3.35599 297.386C1.34692 306.43 0.357987 325.832 0.00103363 349.739C-0.0168961 350.949 0.205693 352.15 0.655853 353.272C1.10601 354.395 1.77477 355.416 2.62323 356.278C3.47169 357.14 4.48293 357.824 5.59815 358.292C6.71337 358.759 7.91032 359 9.11941 359H219.757V359H246.047C247.255 358.999 248.451 358.759 249.566 358.292C250.68 357.825 251.691 357.142 252.539 356.281C253.388 355.42 254.057 354.4 254.507 353.278C254.958 352.157 255.182 350.957 255.165 349.749C254.817 323.734 253.828 302.592 251.801 292.783Z" fill="#3F3D56"/>
<path d="M278.827 33.3138C270.632 33.3138 262.772 36.5705 256.977 42.3674C251.183 48.1643 247.927 56.0266 247.927 64.2246C247.927 72.4227 251.183 80.285 256.977 86.0819C262.772 91.8788 270.632 95.1354 278.827 95.1354H509.101C517.296 95.1354 525.155 91.8788 530.95 86.0819C536.745 80.285 540 72.4227 540 64.2246C540 56.0266 536.745 48.1643 530.95 42.3674C525.155 36.5705 517.296 33.3138 509.101 33.3138H278.827Z" fill="#E5E5E5"/>
<path d="M278.827 39.5696C272.29 39.5696 266.021 42.1672 261.399 46.7909C256.777 51.4146 254.181 57.6857 254.181 64.2246C254.181 70.7635 256.777 77.0346 261.399 81.6584C266.021 86.2821 272.29 88.8797 278.827 88.8797H509.101C515.637 88.8797 521.906 86.2821 526.528 81.6584C531.15 77.0346 533.747 70.7635 533.747 64.2246C533.747 57.6857 531.15 51.4146 526.528 46.7909C521.906 42.1672 515.637 39.5696 509.101 39.5696H278.827Z" fill="white"/>
<path d="M135.292 180.167C163.152 180.167 185.738 157.573 185.738 129.702C185.738 101.831 163.152 79.2375 135.292 79.2375C107.431 79.2375 84.8459 101.831 84.8459 129.702C84.8459 157.573 107.431 180.167 135.292 180.167Z" fill="#9E616A"/>
<path d="M122.387 177.696C122.171 177.221 121.956 176.745 121.742 176.267C121.825 176.269 121.906 176.281 121.989 176.283L122.387 177.696Z" fill="#2F2E41"/>
<path d="M83.443 81.5325C85.9945 79.4964 88.9764 77.623 92.2386 77.7283C95.5005 77.8335 98.8085 80.7808 98.1327 83.975C104.124 73.3622 113.661 65.1997 125.07 60.9204C136.478 56.641 149.029 56.5181 160.518 60.5734C168.626 63.4348 176.577 69.1594 178.439 77.5557C178.917 79.711 179.02 82.0744 180.365 83.8246C182.061 86.0313 185.306 86.5304 187.979 85.7542C188.005 85.7464 188.032 85.7385 188.059 85.7306C188.51 85.5764 188.997 85.5612 189.458 85.6871C189.918 85.8129 190.329 86.074 190.64 86.4365C190.95 86.799 191.144 87.2463 191.197 87.7205C191.251 88.1948 191.161 88.6741 190.939 89.0965L188.645 93.3764C191.536 94.0212 194.541 93.9573 197.403 93.19C197.878 93.0653 198.381 93.0908 198.841 93.2629C199.301 93.4351 199.697 93.7455 199.974 94.1516C200.251 94.5577 200.396 95.0396 200.388 95.5312C200.381 96.0228 200.221 96.5 199.932 96.8974C192.367 107.286 179.73 113.995 166.834 113.916C157.668 113.86 148.408 110.7 139.488 112.809C136.037 113.625 132.812 115.203 130.05 117.428C127.289 119.653 125.06 122.468 123.528 125.667C121.996 128.866 121.199 132.368 121.196 135.915C121.193 139.462 121.984 142.965 123.511 146.167C120.77 143.169 115.473 143.878 112.67 146.818C109.867 149.758 109.141 154.146 109.424 158.199C109.855 164.398 112.283 170.24 114.843 175.925C93.3837 175.249 73.0869 160.19 66.255 139.823C59.3944 119.37 66.5845 94.986 83.443 81.5325Z" fill="#2F2E41"/>
<path opacity="0.2" d="M49.6518 281.25L63.8007 358.261L72.2904 359L49.6518 281.25Z" fill="#282828"/>
<path opacity="0.2" d="M205.505 275.443L191.356 358.205L182.867 359L205.505 275.443Z" fill="#282828"/>
<path d="M95.511 55.6149C92.7981 56.7481 89.9674 55.5062 88.7802 52.6621C87.5749 49.7745 88.7006 46.8432 91.457 45.6918C94.2136 44.5403 96.9939 45.7853 98.2186 48.7194C99.4251 51.6096 98.3116 54.445 95.511 55.6149ZM90.3143 40.0081L88.1573 40.9091C87.6184 41.1315 87.0157 41.1435 86.4684 40.9427C85.9212 40.7419 85.4692 40.3429 85.2018 39.8247L85.0952 39.616C82.7742 35.4287 82.5085 30.3396 84.3095 24.4981C85.9779 19.258 86.6709 15.5727 85.2773 12.2339C83.666 8.37375 80.2253 7.16453 75.8376 8.91621C74.1359 9.62706 73.5944 9.61573 72.2552 10.9447C71.9639 11.2373 71.6166 11.4682 71.2342 11.6237C70.8518 11.7792 70.4419 11.856 70.0292 11.8496C69.6301 11.8449 69.2362 11.7599 68.8707 11.5996C68.5052 11.4393 68.1758 11.207 67.902 10.9166C67.3745 10.3569 67.079 9.61784 67.0751 8.84865C67.0712 8.07946 67.3593 7.33745 67.8811 6.77248C70.132 4.41529 72.847 2.55046 75.8546 1.29566C85.2818 -2.64227 90.0275 3.17151 92.1992 8.37431C94.3234 13.4632 93.1285 18.1849 91.2086 24.2999C89.5997 29.3812 89.6934 33.1463 91.521 36.89C91.653 37.173 91.7264 37.4798 91.7369 37.7919C91.7473 38.104 91.6946 38.415 91.5819 38.7063C91.4692 38.9975 91.2988 39.2629 91.081 39.4866C90.8632 39.7103 90.6024 39.8877 90.3143 40.0081L90.3143 40.0081Z" fill="#F9A826"/>
<path d="M329.691 78.967H283.875C283.73 78.968 283.585 78.9401 283.451 78.8851C283.316 78.8301 283.193 78.7489 283.09 78.6463C282.987 78.5437 282.905 78.4217 282.849 78.2872C282.793 78.1528 282.764 78.0086 282.764 77.863C282.764 77.7174 282.793 77.5732 282.849 77.4388C282.905 77.3044 282.987 77.1823 283.09 77.0797C283.193 76.9771 283.316 76.896 283.451 76.8409C283.585 76.7859 283.73 76.7581 283.875 76.7591H329.691C329.983 76.761 330.261 76.8782 330.467 77.085C330.672 77.2918 330.787 77.5715 330.787 77.863C330.787 78.1545 330.672 78.4342 330.467 78.641C330.261 78.8478 329.983 78.965 329.691 78.967Z" fill="#F9A826"/>
<path d="M387.811 79.3349H341.995C341.85 79.3359 341.706 79.3081 341.571 79.253C341.436 79.198 341.314 79.1168 341.21 79.0142C341.107 78.9116 341.025 78.7896 340.969 78.6551C340.913 78.5207 340.884 78.3766 340.884 78.2309C340.884 78.0853 340.913 77.9412 340.969 77.8067C341.025 77.6723 341.107 77.5503 341.21 77.4476C341.314 77.345 341.436 77.2639 341.571 77.2088C341.706 77.1538 341.85 77.126 341.995 77.127H387.811C387.957 77.126 388.101 77.1538 388.236 77.2088C388.371 77.2639 388.493 77.345 388.597 77.4476C388.7 77.5503 388.782 77.6723 388.838 77.8067C388.894 77.9412 388.923 78.0853 388.923 78.2309C388.923 78.3766 388.894 78.5207 388.838 78.6551C388.782 78.7896 388.7 78.9116 388.597 79.0142C388.493 79.1168 388.371 79.198 388.236 79.253C388.101 79.3081 387.957 79.3359 387.811 79.3349Z" fill="#F9A826"/>
<path d="M445.932 79.7029H400.116C399.824 79.7009 399.546 79.5838 399.34 79.3769C399.135 79.1701 399.02 78.8905 399.02 78.599C399.02 78.3075 399.135 78.0278 399.34 77.821C399.546 77.6142 399.824 77.497 400.116 77.495H445.932C446.077 77.494 446.222 77.5219 446.356 77.5769C446.491 77.6319 446.614 77.7131 446.717 77.8157C446.82 77.9183 446.902 78.0403 446.958 78.1748C447.014 78.3092 447.043 78.4534 447.043 78.599C447.043 78.7446 447.014 78.8888 446.958 79.0232C446.902 79.1576 446.82 79.2797 446.717 79.3823C446.614 79.4849 446.491 79.566 446.356 79.6211C446.222 79.6761 446.077 79.7039 445.932 79.7029H445.932Z" fill="#F9A826"/>
<path d="M504.052 80.0708H458.236C457.945 80.0688 457.666 79.9517 457.461 79.7448C457.255 79.538 457.14 79.2584 457.14 78.9669C457.14 78.6754 457.255 78.3957 457.461 78.1889C457.666 77.9821 457.945 77.8649 458.236 77.8629H504.052C504.343 77.8649 504.622 77.9821 504.828 78.1889C505.033 78.3957 505.148 78.6754 505.148 78.9669C505.148 79.2584 505.033 79.538 504.828 79.7448C504.622 79.9517 504.343 80.0688 504.052 80.0708Z" fill="#F9A826"/>
<path d="M306.682 68.8072C311.385 68.8072 315.198 64.9933 315.198 60.2888C315.198 55.5842 311.385 51.7704 306.682 51.7704C301.98 51.7704 298.167 55.5842 298.167 60.2888C298.167 64.9933 301.98 68.8072 306.682 68.8072Z" fill="#F9A826"/>
<path d="M365.154 68.8072C369.857 68.8072 373.669 64.9933 373.669 60.2888C373.669 55.5842 369.857 51.7704 365.154 51.7704C360.451 51.7704 356.638 55.5842 356.638 60.2888C356.638 64.9933 360.451 68.8072 365.154 68.8072Z" fill="#F9A826"/>
<path d="M423.625 68.8072C428.328 68.8072 432.14 64.9933 432.14 60.2888C432.14 55.5842 428.328 51.7704 423.625 51.7704C418.922 51.7704 415.11 55.5842 415.11 60.2888C415.11 64.9933 418.922 68.8072 423.625 68.8072Z" fill="#F9A826"/>
<path d="M482.096 68.8072C486.799 68.8072 490.612 64.9933 490.612 60.2888C490.612 55.5842 486.799 51.7704 482.096 51.7704C477.394 51.7704 473.581 55.5842 473.581 60.2888C473.581 64.9933 477.394 68.8072 482.096 68.8072Z" fill="#F9A826"/>
</g>
<defs>
<clipPath id="clip0_21:4">
<rect width="540" height="359" fill="white"/>
</clipPath>
</defs>
</svg>
