<svg width="52" height="53" viewBox="0 0 52 53" fill="none" xmlns="http://www.w3.org/2000/svg">
<path fill-rule="evenodd" clip-rule="evenodd" d="M6.54967 25.306C8.82493 24.2456 11.1974 22.8975 12.9559 21.1036C15.0444 18.9728 15.7348 16.4168 16.1098 13.7594C16.5911 10.3453 16.5742 6.75834 17.2241 3.32294C17.4644 2.04728 18.1076 1.51308 18.383 1.27696C19.0789 0.680482 19.8193 0.468874 20.5332 0.454915C21.3791 0.436721 22.5632 0.646027 23.4548 1.98306C23.582 2.17447 23.7516 2.46837 23.8859 2.88024C23.9839 3.18223 24.1194 4.14269 24.2299 4.5336C24.5047 5.49597 24.7498 6.46119 24.9859 7.43267C25.7721 10.666 26.3088 13.4246 28.1009 16.2944C30.5328 20.1905 32.8194 22.4991 35.7055 23.3454C38.4961 24.1638 41.6931 23.6596 45.7231 22.4326C46.1052 22.3011 46.4845 22.1835 46.8611 22.0812C48.643 21.5941 50.4868 22.6203 51.0125 24.3918C51.5381 26.1618 50.5521 28.0277 48.794 28.5931C48.427 28.7109 48.065 28.8241 47.7065 28.9302C42.2832 30.8275 36.3168 36.3385 32.9855 40.9858C31.9587 42.4188 30.6215 46.2805 29.1241 48.8047C28.019 50.6668 26.7011 51.9498 25.5419 52.4683C24.7653 52.8172 24.0849 52.8389 23.5131 52.7535C22.6824 52.6297 21.9673 52.2533 21.3846 51.6024C21.0671 51.246 20.7577 50.7578 20.5716 50.1147C20.4824 49.8051 20.4003 49.0048 20.3675 48.6421C19.9036 47.4695 19.3639 46.3327 18.9369 45.1458C17.9182 42.3138 16.2827 40.6141 14.317 38.3503C12.4783 36.2316 10.5986 34.9684 7.93288 34.07C7.5924 34.0202 4.84481 33.6154 3.86083 33.3271C2.42328 32.9042 1.67575 32.0395 1.38928 31.5628C0.902318 30.7541 0.79076 30.018 0.813873 29.3934C0.848589 28.4715 1.18385 27.6538 1.84984 26.9564C2.26223 26.5231 2.89754 26.0797 3.77848 25.8098C4.45894 25.5997 6.2924 25.3425 6.54967 25.306ZM21.8601 19.093C22.0107 19.3587 22.1696 19.6249 22.3368 19.8931C25.8986 25.5993 29.566 28.627 33.7939 29.8657L33.9355 29.9056C31.3997 32.1862 29.1447 34.6807 27.4628 37.0271C26.7702 37.9932 25.9166 39.9449 24.9848 41.9518C23.6667 38.7657 21.7977 36.6021 19.4491 33.8952C17.6549 31.8296 15.8366 30.3191 13.6671 29.1529C15.1749 28.1906 16.5965 27.0958 17.8083 25.8598C19.8258 23.8012 21.0729 21.519 21.8601 19.093Z" fill="black"/>
</svg>
