<svg width="24" height="24" viewBox="0 0 24 24" fill="none" xmlns="http://www.w3.org/2000/svg">
<path fill-rule="evenodd" clip-rule="evenodd" d="M11.59 0.0554694C11.3609 0.141474 11.1044 0.326823 10.9975 0.483587C10.8932 0.63654 10.7781 0.902628 10.2221 2.27524C10.0323 2.74413 9.84705 3.19547 9.8106 3.27821C9.77421 3.36096 9.37796 4.32948 8.93014 5.43049C8.48232 6.5315 8.08727 7.44816 8.05227 7.46752C8.01726 7.48693 7.70769 7.5278 7.36435 7.55844C6.68811 7.61872 5.45591 7.73496 4.65131 7.8144C4.37401 7.84178 3.90943 7.88631 3.61892 7.91339C0.631211 8.19192 0.781557 8.16428 0.423339 8.50133C0.005195 8.89475 -0.115811 9.4872 0.116982 10.0011C0.243558 10.2805 0.437505 10.4803 1.67143 11.6029C1.94427 11.8511 2.19157 12.0771 2.22096 12.1051C2.3204 12.1996 4.27134 13.9859 4.9678 14.6201C5.34835 14.9665 5.65956 15.2756 5.65936 15.307C5.65917 15.3383 5.616 15.5515 5.56338 15.7807C5.4839 16.127 4.80224 19.2707 4.57722 20.3287C4.54202 20.4942 4.43379 20.9794 4.33674 21.4069C4.12758 22.3283 4.08061 22.8994 4.19144 23.1728C4.3572 23.5815 4.76968 23.9102 5.21375 23.9876C5.55833 24.0476 5.86479 23.9093 7.08177 23.1447C8.42585 22.3002 10.9503 20.7269 11.1578 20.6043C11.237 20.5575 11.4481 20.4256 11.6269 20.3112C11.8056 20.1967 11.9734 20.103 11.9998 20.103C12.0262 20.103 12.222 20.2159 12.435 20.3538C12.6479 20.4917 12.8293 20.6045 12.8382 20.6045C12.8471 20.6045 14.024 21.3376 15.4535 22.2336C17.1544 23.2997 18.1438 23.8903 18.3164 23.9427C18.627 24.037 18.8823 24.0067 19.2009 23.8377C19.8132 23.5129 19.9986 22.9197 19.7823 21.9779C19.7323 21.7604 19.6452 21.368 19.5886 21.106C19.5321 20.844 19.4657 20.5393 19.441 20.429C19.4163 20.3187 19.3521 20.0253 19.2982 19.7771C19.2444 19.5288 19.0185 18.4908 18.7963 17.4702C18.5742 16.4497 18.3781 15.5341 18.3607 15.4356L18.3291 15.2564L19.6121 14.0816C20.3177 13.4354 20.919 12.8832 20.9483 12.8544C20.9776 12.8257 21.1756 12.6452 21.3883 12.4532C22.7025 11.2676 23.6185 10.4088 23.7261 10.2616C24.111 9.73448 24.089 9.10397 23.668 8.60323C23.3542 8.23008 23.1549 8.16383 22.058 8.06825C21.7411 8.04062 21.2441 7.99513 20.9536 7.96715C20.6631 7.93912 20.1877 7.89474 19.8972 7.86846C19.6066 7.84223 19.0232 7.78662 18.6007 7.74499C18.1781 7.70332 17.4326 7.63266 16.944 7.58803C16.4554 7.54334 16.0164 7.49144 15.9684 7.47269C15.9204 7.45393 15.8214 7.29235 15.7483 7.11357C15.6752 6.93484 15.3083 6.03262 14.933 5.10863C14.5576 4.18465 14.2212 3.36096 14.1855 3.27821C14.1167 3.11879 13.7003 2.10223 13.3155 1.15387C13.0481 0.495122 12.8146 0.204661 12.4469 0.0738238C12.1919 -0.0168949 11.8049 -0.0251694 11.59 0.0554694Z" fill="#FEC107"/>
</svg>
