<svg width="24" height="24" viewBox="0 0 24 24" fill="none" xmlns="http://www.w3.org/2000/svg">
<path fill-rule="evenodd" clip-rule="evenodd" d="M10.5017 4.53704C10.4496 3.64109 11.2325 3 12.0008 3C12.7692 3 13.5521 3.64109 13.5 4.53704L13.1257 14.6426C13.1211 14.9346 13.0032 15.2137 12.7963 15.4205C12.5853 15.6315 12.2992 15.75 12.0008 15.75C11.7025 15.75 11.4163 15.6315 11.2053 15.4205C10.9985 15.2137 10.8805 14.9346 10.876 14.6426L10.5017 4.53704ZM12.0155 4.5111C12.0155 4.5111 12.0155 4.51102 12.0154 4.51086C12.0155 4.51101 12.0156 4.51109 12.0155 4.5111ZM11.9861 4.5111C11.9861 4.51109 11.9862 4.51101 11.9863 4.51086C11.9862 4.51102 11.9861 4.5111 11.9861 4.5111ZM10.5008 19.5C10.5008 18.6716 11.1724 18 12.0008 18C12.8293 18 13.5008 18.6716 13.5008 19.5C13.5008 20.3284 12.8293 21 12.0008 21C11.1724 21 10.5008 20.3284 10.5008 19.5Z" fill="black"/>
</svg>
