<svg width="488" height="552" viewBox="0 0 488 552" fill="none" xmlns="http://www.w3.org/2000/svg">
<g clip-path="url(#clip0_7:16)">
<path d="M330.773 434.643C346.264 420.048 354.252 398.184 345.929 379.69C333.814 398.3 313.869 412.957 290.744 420.243C281.737 423.081 271.38 425.421 266.481 432.579C263.433 437.033 263.21 442.61 264.584 447.653C265.957 452.697 268.785 457.336 271.585 461.911L271.601 463.205C293.523 457.623 315.282 449.237 330.773 434.643Z" fill="#F2F2F2"/>
<path d="M345.463 379.788C342.852 395.894 334.305 411.379 321.237 423.052C318.4 425.693 315.182 427.889 311.689 429.567C308.095 431.16 304.178 431.885 300.252 431.682C296.555 431.565 292.788 431.072 289.122 431.738C287.324 432.054 285.608 432.73 284.077 433.725C282.546 434.72 281.231 436.014 280.211 437.53C277.781 441.107 276.974 445.231 276.345 449.287C275.648 453.791 275.006 458.479 272.043 462.353C271.684 462.822 272.542 463.279 272.901 462.81C278.056 456.07 276.331 447.455 279.81 440.186C281.433 436.794 284.241 433.807 288.44 432.783C292.112 431.887 295.996 432.393 299.739 432.54C303.575 432.784 307.418 432.202 311.011 430.834C314.588 429.318 317.898 427.234 320.811 424.662C327.19 419.207 332.641 412.75 336.95 405.544C341.733 397.65 344.964 388.914 346.47 379.807C346.56 379.25 345.553 379.235 345.463 379.788V379.788Z" fill="white"/>
<path d="M325.715 419.453C328.375 421.103 331.483 421.883 334.607 421.683C337.731 421.484 340.715 420.315 343.144 418.339C343.604 417.942 342.917 417.302 342.456 417.699C340.198 419.542 337.419 420.631 334.51 420.812C331.602 420.992 328.71 420.256 326.241 418.707C325.72 418.372 325.196 419.12 325.715 419.453Z" fill="white"/>
<path d="M302.118 431.957C301.601 429.143 301.684 426.252 302.364 423.474C303.043 420.695 304.303 418.092 306.06 415.835C306.417 415.365 305.559 414.908 305.202 415.378C303.378 417.729 302.073 420.441 301.373 423.333C300.673 426.226 300.593 429.235 301.139 432.161C301.247 432.718 302.225 432.51 302.118 431.957Z" fill="white"/>
<path d="M340.457 397.415C339.359 397.023 338.379 396.357 337.61 395.479C336.841 394.602 336.309 393.542 336.064 392.402C335.965 391.844 334.987 392.052 335.085 392.606C335.361 393.865 335.95 395.033 336.797 396.004C337.644 396.975 338.722 397.717 339.931 398.161C340.046 398.219 340.176 398.236 340.302 398.21C340.428 398.183 340.541 398.115 340.623 398.017C340.657 397.968 340.679 397.912 340.689 397.853C340.699 397.795 340.696 397.734 340.68 397.677C340.664 397.62 340.636 397.567 340.598 397.521C340.559 397.476 340.511 397.44 340.457 397.415Z" fill="white"/>
<path d="M272.469 358.661C272.52 359.011 272.571 359.361 272.615 359.715C273.268 364.411 273.48 369.158 273.25 373.894C273.239 374.26 273.221 374.631 273.198 374.996C272.469 386.517 269.331 397.757 263.988 407.989C261.814 412.166 259.304 416.159 256.482 419.928C252.551 425.187 247.807 430.618 246.152 436.526C245.972 437.138 245.835 437.762 245.743 438.394L269.785 463.121C269.872 463.154 269.953 463.191 270.04 463.224L270.948 464.249C271.11 464.062 271.274 463.864 271.437 463.677C271.532 463.568 271.621 463.454 271.716 463.346C271.778 463.272 271.839 463.197 271.899 463.134C271.92 463.109 271.94 463.084 271.954 463.064C272.015 463.001 272.063 462.936 272.117 462.877C273.037 461.775 273.95 460.666 274.856 459.549C274.862 459.544 274.862 459.544 274.863 459.534C281.738 451.008 287.855 441.908 292.189 432.291C292.319 432.001 292.456 431.707 292.575 431.407C294.49 427.095 296.005 422.617 297.103 418.029C297.688 415.537 298.128 413.014 298.422 410.472C299.164 403.909 298.713 397.267 297.093 390.864C293.856 378.037 285.936 366.253 273.431 359.193C273.111 359.012 272.796 358.837 272.469 358.661Z" fill="#F2F2F2"/>
<path d="M272.163 358.982C281.23 373.209 285.129 390.047 282.779 406.208C282.353 409.765 281.3 413.219 279.667 416.408C277.85 419.612 275.201 422.264 272 424.083C268.966 425.925 265.617 427.503 263.151 429.954C261.938 431.147 261.024 432.611 260.485 434.225C259.946 435.84 259.796 437.559 260.047 439.243C260.584 443.372 262.795 447.086 265.103 450.654C267.665 454.615 270.398 458.694 270.715 463.338C270.753 463.901 271.755 463.816 271.717 463.255C271.165 455.174 263.823 449.199 261.566 441.574C260.513 438.016 260.687 434.161 263.33 431.145C265.642 428.508 269.093 426.878 272.184 425.037C275.343 423.291 278.028 420.798 280.003 417.774C281.814 414.678 283.019 411.264 283.553 407.716C284.866 399.855 284.747 391.822 283.201 384.003C281.442 374.921 277.974 366.255 272.979 358.47C272.666 357.979 271.851 358.494 272.163 358.982Z" fill="white"/>
<path d="M283.861 400.99C290.446 400.93 296.065 396.635 297.006 390.977C297.099 390.42 296.107 390.268 296.014 390.826C295.132 396.127 289.92 400.063 283.765 400.119C283.117 400.125 283.217 400.996 283.861 400.99Z" fill="white"/>
<path d="M273.68 423.326C271.402 421.51 269.517 419.249 268.139 416.682C266.761 414.114 265.919 411.293 265.663 408.39C265.623 407.827 264.621 407.912 264.661 408.474C264.934 411.495 265.817 414.429 267.257 417.098C268.697 419.768 270.665 422.116 273.039 424.001C273.511 424.389 274.148 423.712 273.68 423.326V423.326Z" fill="white"/>
<path d="M280.372 375.677C279.155 375.924 277.898 375.899 276.692 375.605C275.486 375.311 274.359 374.754 273.392 373.974C272.927 373.581 272.29 374.259 272.752 374.649C273.824 375.507 275.069 376.12 276.401 376.448C277.734 376.776 279.121 376.81 280.468 376.548C280.735 376.496 280.946 376.327 280.921 376.071C280.897 375.947 280.827 375.838 280.724 375.765C280.622 375.691 280.496 375.66 280.372 375.677V375.677Z" fill="white"/>
<path d="M216.76 462.469C186.837 482.945 157.085 488.141 132.987 477.102C102.062 462.935 83.3282 423.931 81.5903 370.092L83.4223 370.264C85.1356 423.354 103.426 461.731 133.603 475.554C157.055 486.298 186.164 481.134 215.567 461.015L216.76 462.469Z" fill="#F2F2F2"/>
<path d="M401.679 115.78C398.732 148.272 390.337 182.534 377.171 215.592C360.89 256.472 338.646 292.479 312.842 319.721L311.41 318.471C337.089 291.361 359.232 255.512 375.445 214.801C390.098 178.011 398.813 139.725 400.661 104.1L402.49 104.407C402.296 108.169 402.026 111.96 401.679 115.78Z" fill="#F2F2F2"/>
<path d="M322.186 69.6008L320.407 69.7958C312.476 38.6045 297.103 16.9954 275.949 7.30443C249.056 -5.01457 215.802 3.25786 182.312 30.5982C148.652 58.0781 118.854 101.484 98.4082 152.823L96.6822 152.033C117.218 100.47 147.169 56.8536 181.017 29.221C215.036 1.44863 248.968 -6.88446 276.565 5.75708C298.326 15.7258 314.102 37.8027 322.186 69.6008Z" fill="#F2F2F2"/>
<path d="M420.892 341.156C384.649 398.86 340.68 440.089 297.081 457.249L296.199 455.631C339.496 438.59 383.208 397.571 419.285 340.131L420.892 341.156Z" fill="#F2F2F2"/>
<path d="M476.809 211.874C476.211 218.459 475.446 225.125 474.512 231.872L472.694 231.431C479.67 181.085 477.196 134.923 465.536 97.9267L467.288 97.6333C477.457 129.906 480.69 169.077 476.809 211.874Z" fill="#F2F2F2"/>
<path d="M98.272 161.854C93.6202 171.662 89.1955 181.822 85.1208 192.053C61.6728 250.929 49.7903 311.057 50.7613 365.94L48.9288 365.744C47.9568 310.657 59.8734 250.322 83.3948 191.263C87.4812 181.003 91.9185 170.814 96.5838 160.979L98.272 161.854Z" fill="#F2F2F2"/>
<path d="M215.88 502.924C185.957 523.399 156.206 528.595 132.107 517.556C101.182 503.39 82.4485 464.386 80.7106 410.546L82.5427 410.718C84.2559 463.808 102.546 502.185 132.723 516.009C156.176 526.752 185.285 521.589 214.687 501.47L215.88 502.924Z" fill="#F2F2F2"/>
<path d="M400.799 156.234C397.852 188.727 389.457 222.988 376.292 256.046C360.01 296.927 337.766 332.934 311.963 360.175L310.531 358.926C336.209 331.815 358.352 295.967 374.566 255.256C389.218 218.465 397.934 180.18 399.781 144.555L401.611 144.861C401.417 148.624 401.146 152.415 400.799 156.234Z" fill="#F2F2F2"/>
<path d="M397.571 112.3L395.792 112.495C387.861 81.3038 372.488 59.6948 351.333 50.0038C324.441 37.6848 291.187 45.9572 257.697 73.2975C224.037 100.777 194.239 144.184 173.793 195.523L172.067 194.732C192.603 143.169 222.554 99.553 256.402 71.9203C290.421 44.148 324.353 35.8149 351.95 48.4564C373.711 58.4251 389.487 80.502 397.571 112.3Z" fill="#F2F2F2"/>
<path d="M418.517 395.827C382.274 453.531 338.304 494.761 294.706 511.921L293.824 510.303C337.121 493.261 380.833 452.243 416.91 394.803L418.517 395.827Z" fill="#F2F2F2"/>
<path d="M475.929 252.328C475.332 258.914 474.566 265.58 473.632 272.326L471.815 271.885C478.79 221.539 476.316 175.377 464.657 138.381L466.409 138.088C476.578 170.36 479.81 209.532 475.929 252.328Z" fill="#F2F2F2"/>
<path d="M97.3924 202.309C92.7406 212.116 88.3159 222.277 84.2411 232.508C60.7931 291.384 48.9107 351.512 49.8817 406.394L48.0491 406.199C47.0771 351.112 58.9938 290.777 82.5152 231.717C86.6016 221.457 91.0389 211.268 95.7041 201.433L97.3924 202.309Z" fill="#F2F2F2"/>
<path d="M447.979 173.92C450.005 170.872 448.806 166.51 445.301 164.177C441.796 161.843 437.312 162.421 435.286 165.469C433.261 168.516 434.46 172.878 437.965 175.212C441.469 177.546 445.953 176.967 447.979 173.92Z" fill="#FD6584"/>
<path d="M215.13 212.767C219.372 206.261 226.298 201.149 234.012 200.717C241.725 200.285 250.995 206.859 254.802 213.623C261.766 225.996 258.744 237.893 249.153 246.499C247.85 246.056 243.302 244.721 241.978 244.294L241.139 242.776L240.103 243.699C228.25 244.882 216.8 243.564 207.879 234.725C208.988 227.034 210.888 219.272 215.13 212.767Z" fill="#2F2E41"/>
<path d="M246.911 299.612L245.51 312.618L246.335 329.673L208.587 325.185L205.04 299.612L209.559 299.656L246.911 299.612Z" fill="#FFB6B6"/>
<path d="M231.413 243.407C240.069 243.407 247.087 236.384 247.087 227.721C247.087 219.057 240.069 212.034 231.413 212.034C222.756 212.034 215.738 219.057 215.738 227.721C215.738 236.384 222.756 243.407 231.413 243.407Z" fill="#FFB7B7"/>
<path d="M214.044 256.867L223.014 251.481L240.953 249.686L256.808 257.766L256.65 282.45L246.591 308.051L204.434 302.665L202.832 293.635C202.832 293.635 191.172 277.962 203.729 268.985L214.044 256.867Z" fill="#F9A826"/>
<path d="M225.552 203.898C228.949 202.945 232.538 202.923 235.946 203.833C239.354 204.744 242.455 206.554 244.924 209.075C247.394 211.595 249.141 214.734 249.984 218.162C250.827 221.589 250.734 225.181 249.715 228.56C240.169 229.323 230.732 228.431 223.294 221.671L222.632 215.873L219.918 220.725C217.181 219.955 214.439 219.179 211.693 218.399C212.533 214.979 214.255 211.84 216.687 209.296C219.119 206.751 222.176 204.89 225.552 203.898Z" fill="#2F2E41"/>
<path d="M160.21 183.571C159.785 184.478 159.564 185.467 159.562 186.469C159.56 187.47 159.778 188.46 160.2 189.369C160.622 190.277 161.238 191.082 162.004 191.726C162.77 192.371 163.669 192.839 164.635 193.099L193.839 248.244L205.626 239.139L173.214 187.796C173.542 186.142 173.252 184.425 172.399 182.97C171.546 181.515 170.19 180.424 168.587 179.903C166.984 179.382 165.246 179.468 163.702 180.144C162.158 180.82 160.916 182.039 160.21 183.571H160.21Z" fill="#FFB6B6"/>
<path d="M208.114 266.877C208.114 266.877 205.408 269.279 201.56 262.647C198.479 257.337 183.113 233.561 180.938 225.319C179.744 225.353 178.574 224.988 177.61 224.283C176.647 223.577 175.945 222.571 175.616 221.423L192.12 215.012C195.708 216.807 194.712 219.295 193.803 220.582L199.95 229.81L220.396 252.773L210.101 265.176L208.114 266.877Z" fill="#F9A826"/>
<path d="M487.11 552H0.890272C0.65416 552 0.42771 551.906 0.260754 551.739C0.0937972 551.572 1.52588e-05 551.345 1.52588e-05 551.109C1.52588e-05 550.873 0.0937972 550.646 0.260754 550.479C0.42771 550.312 0.65416 550.218 0.890272 550.218H487.11C487.346 550.218 487.572 550.312 487.739 550.479C487.906 550.646 488 550.873 488 551.109C488 551.345 487.906 551.572 487.739 551.739C487.572 551.906 487.346 552 487.11 552Z" fill="#CCCCCC"/>
<path d="M370.705 54.7592C361.93 46.1026 350.211 41.3249 338.459 38.2683C325.156 34.8083 311.4 32.7701 297.809 30.8147C283.646 28.7768 269.427 27.2049 255.151 26.0991C240.894 24.9991 226.612 24.3694 212.304 24.21C199.554 24.0671 186.72 24.0627 174.032 25.4783C162.082 26.8116 150.161 29.4872 139.388 34.9802C129.798 39.7644 121.741 47.1446 116.132 56.2823C110.976 64.7877 107.911 74.9835 108.977 84.9814C109.477 89.9045 111.008 94.6669 113.472 98.9575C116.36 103.699 120.04 107.909 124.351 111.404C133.253 118.926 143.896 124.425 151.554 133.366C153.576 135.708 155.343 138.259 156.823 140.977C157.935 143.038 159.186 144.812 161.254 146.014C163.1 147.069 165.217 147.552 167.338 147.405C169.458 147.257 171.487 146.484 173.17 145.183C175.555 143.309 177.268 140.421 179.114 138.044L185.551 129.754C186.016 129.01 186.556 128.316 187.16 127.681C187.594 127.322 186.878 127.638 187.02 127.549C187.098 127.5 187.236 127.527 187.321 127.492C187.75 127.369 188.189 127.287 188.633 127.248C193.334 126.383 198.044 125.574 202.764 124.821C220.192 122.007 237.734 119.685 255.349 118.434C264.428 117.709 273.541 117.491 282.644 117.783C294.416 118.265 306.025 120.604 317.753 121.613C330.38 122.7 343.644 122.55 355.542 117.677C365.066 113.777 373.908 107.215 379.065 98.1522C381.511 93.8658 382.961 89.0827 383.306 84.1583C383.935 72.9888 378.508 62.4561 370.705 54.7592Z" fill="#E6E6E6"/>
<path d="M205.286 33.3644C203.04 33.3644 200.796 33.3764 198.553 33.4002C177.017 33.6289 154.759 35.3715 137.869 46.4811C122.877 56.3422 112.37 78.3077 121.262 94.0605C125.345 101.294 132.743 106.559 140.575 112.133C143.645 114.318 146.82 116.578 149.863 119.011C156.509 124.326 162.768 131.46 166.369 139.481L182.183 119.113L185.171 118.541C188.046 117.99 255.986 105.097 292.17 109.283C295.498 109.668 298.861 110.111 302.114 110.539C316.814 112.475 330.697 114.302 344.026 111.604C357.941 108.786 373.221 98.0309 374.13 83.6486C374.753 73.8023 368.352 63.0007 357.824 56.1302C347.179 49.1836 333.902 46.3155 321.215 43.973C282.974 36.9212 244.17 33.3703 205.286 33.3644Z" fill="white"/>
<path d="M328.017 64.7042H175.292C174.41 64.7042 173.565 64.3539 172.942 63.7302C172.319 63.1065 171.969 62.2607 171.969 61.3787C171.969 60.4967 172.319 59.6508 172.942 59.0271C173.565 58.4035 174.41 58.0531 175.292 58.0531H328.017C328.898 58.0531 329.744 58.4035 330.367 59.0271C330.99 59.6508 331.34 60.4967 331.34 61.3787C331.34 62.2607 330.99 63.1065 330.367 63.7302C329.744 64.3539 328.898 64.7042 328.017 64.7042Z" fill="#F9A826"/>
<path d="M328.017 85.1168H175.292C174.41 85.1168 173.565 84.7664 172.942 84.1428C172.319 83.5191 171.969 82.6733 171.969 81.7913C171.969 80.9093 172.319 80.0634 172.942 79.4397C173.565 78.8161 174.41 78.4657 175.292 78.4657H328.017C328.898 78.4657 329.744 78.8161 330.367 79.4397C330.99 80.0634 331.34 80.9093 331.34 81.7913C331.34 82.6733 330.99 83.5191 330.367 84.1428C329.744 84.7664 328.898 85.1168 328.017 85.1168Z" fill="#F9A826"/>
<path d="M193.09 105.529H175.292C174.41 105.529 173.565 105.179 172.942 104.555C172.319 103.931 171.969 103.085 171.969 102.203C171.969 101.321 172.319 100.476 172.942 99.852C173.565 99.2283 174.41 98.8779 175.292 98.8779H193.09C193.971 98.8779 194.816 99.2283 195.439 99.852C196.063 100.476 196.413 101.321 196.413 102.203C196.413 103.085 196.063 103.931 195.439 104.555C194.816 105.179 193.971 105.529 193.09 105.529Z" fill="#F9A826"/>
<path d="M165.495 185.297C173.296 185.297 179.619 178.969 179.619 171.162C179.619 163.356 173.296 157.027 165.495 157.027C157.695 157.027 151.372 163.356 151.372 171.162C151.372 178.969 157.695 185.297 165.495 185.297Z" fill="#E6E6E6"/>
<path d="M124.402 344.977C126.428 341.929 125.229 337.567 121.724 335.233C118.219 332.9 113.735 333.478 111.709 336.526C109.683 339.573 110.883 343.935 114.387 346.269C117.892 348.602 122.376 348.024 124.402 344.977Z" fill="#F2F2F2"/>
<path d="M427.441 344.015C429.467 340.967 428.268 336.605 424.763 334.271C421.258 331.938 416.774 332.516 414.749 335.564C412.723 338.611 413.922 342.973 417.427 345.307C420.932 347.64 425.415 347.062 427.441 344.015Z" fill="#E6E6E6"/>
<path d="M313.044 234.018C315.07 230.971 313.871 226.609 310.366 224.275C306.861 221.942 302.377 222.52 300.352 225.567C298.326 228.615 299.525 232.977 303.03 235.311C306.535 237.644 311.018 237.066 313.044 234.018Z" fill="#E6E6E6"/>
<path d="M266.49 535.748H258.237L254.31 503.891H266.49V535.748Z" fill="#FFB6B6"/>
<path d="M270.846 550.058H264.928L263.871 544.466L261.166 550.058H245.469C244.716 550.058 243.983 549.817 243.377 549.371C242.771 548.925 242.324 548.296 242.1 547.578C241.876 546.859 241.887 546.087 242.133 545.375C242.378 544.663 242.844 544.049 243.464 543.621L255.999 534.957V529.303L269.184 530.091L270.846 550.058Z" fill="#2F2E41"/>
<path d="M220.133 535.748H211.88L207.953 503.891H220.133V535.748Z" fill="#FFB6B6"/>
<path d="M224.489 550.058H218.571L217.514 544.466L214.809 550.058H199.112C198.359 550.058 197.627 549.817 197.02 549.371C196.414 548.925 195.967 548.296 195.743 547.578C195.519 546.859 195.531 546.087 195.776 545.375C196.021 544.663 196.488 544.049 197.107 543.621L209.642 534.957V529.303L222.827 530.091L224.489 550.058Z" fill="#2F2E41"/>
<path d="M270.051 508.276H269.961L268.374 456.478C269.401 454.495 269.922 452.289 269.891 450.056C269.86 447.823 269.278 445.632 268.196 443.679L267.969 443.267L268.558 440.534C269.315 437.022 268.968 433.362 267.564 430.056L266.083 381.738C271.373 347.429 246.164 325.053 246.164 325.053H208.399L200.291 352.931C194.932 405.191 195.904 456.116 204.409 505.455L204.178 505.572C203.343 505.861 202.985 507.018 203.378 508.158C203.77 509.297 204.766 509.987 205.601 509.699L225.545 509.004C226.38 508.716 226.738 507.558 226.345 506.419C225.952 505.279 224.956 504.59 224.122 504.878L222.766 505.564L225.658 455.581L225.337 446.451L225.998 436.094L229.055 389.506L240.626 446.796L252.446 508.853C252.12 509.148 251.891 509.535 251.79 509.964C251.688 510.392 251.719 510.841 251.878 511.251C252.037 511.662 252.316 512.014 252.679 512.262C253.042 512.511 253.472 512.643 253.912 512.641H270.051C270.629 512.641 271.184 512.411 271.593 512.002C272.002 511.593 272.232 511.038 272.232 510.459C272.232 509.88 272.002 509.325 271.593 508.915C271.184 508.506 270.629 508.276 270.051 508.276H270.051Z" fill="#2F2E41"/>
<path d="M252.439 363.444C253.291 362.918 254.018 362.213 254.568 361.376C255.119 360.539 255.479 359.591 255.623 358.6C255.768 357.609 255.694 356.598 255.406 355.639C255.118 354.679 254.624 353.795 253.957 353.047L259.741 290.905L244.895 292.053L243.878 352.775C242.698 353.979 241.999 355.574 241.916 357.259C241.832 358.943 242.368 360.6 243.424 361.915C244.479 363.23 245.979 364.112 247.641 364.394C249.303 364.676 251.01 364.338 252.439 363.444V363.444Z" fill="#FFB6B6"/>
<path d="M256.259 258.013C256.259 258.013 259.838 257.489 259.423 265.148C259.091 271.279 260.668 309.069 257.973 317.156C258.99 317.782 259.769 318.73 260.188 319.848C260.608 320.967 260.643 322.193 260.29 323.335L242.974 319.641C240.957 316.171 241.375 312.609 242.841 312.031L242.755 300.942L238.928 264.388L253.665 258.346L256.259 258.013Z" fill="#F9A826"/>
</g>
<defs>
<clipPath id="clip0_7:16">
<rect width="488" height="552" fill="white"/>
</clipPath>
</defs>
</svg>
